<svg xmlns="http://www.w3.org/2000/svg" width="280" height="129"><g fill="none" fill-rule="evenodd"><path stroke="#F1FAEE" d="M1 1h278v127H1z"/><g fill="#122035"><text font-family="Oxygen-Regular, Oxygen" font-size="12" transform="translate(101 70)"><tspan x="37" y="12">Total time in space walk</tspan></text><path fill-rule="nonzero" d="M123 73l9 4.5-9 4.5v-9zm-17 4v1h-5v-1h5zm8 0v1h-5v-1h5zm8 0v1h-5v-1h5z"/></g><g fill="#122035"><text font-family="Oxygen-Regular, Oxygen" font-size="12" transform="translate(35 39)"><tspan x="37" y="12">Total time in space</tspan></text><path fill-rule="nonzero" d="M57 42l9 4.5-9 4.5v-9zm-17 4v1h-5v-1h5zm8 0v1h-5v-1h5zm8 0v1h-5v-1h5z"/></g><g fill-rule="nonzero"><path fill="#457B9D" fill-opacity=".8" d="M9.865 58.794a2.5 2.5 0 013.506-.626 300 300 0 0162.465 59.41 2.5 2.5 0 01-.449 3.533 2.5 2.5 0 01-3.481-.442 295 295 0 00-61.425-58.42 2.5 2.5 0 01-.616-3.455z"/><g fill="#000" stroke-opacity=".6"><path stroke="#90BBBD" d="M12.683 57.682l8.136-11.558M16.617 60.5h0"/><path stroke="#1D3557" d="M20.506 63.38l22.812-30.283M24.347 66.323l3.061-3.93M28.141 69.327l2.64-3.28M31.885 72.392l3.619-4.349M35.58 75.517h0"/><path stroke="#90BBBD" d="M39.224 78.701l1.772-1.995"/><path stroke="#1D3557" d="M42.816 81.944l3.748-4.086"/><path stroke="#90BBBD" d="M46.355 85.244l2.172-2.292"/><path stroke="#1D3557" d="M49.84 88.601l21.287-21.749M53.271 92.013l6.789-6.715M56.647 95.481l4.235-4.057M59.966 99.002l2.977-2.761M63.227 102.577l28.212-25.33M66.431 106.203l3.065-2.663"/><path stroke="#90BBBD" d="M69.576 109.881l2.043-1.718"/><path stroke="#1D3557" d="M72.661 113.609l11.56-9.41M75.686 117.387l4.356-3.431"/></g><g fill="#457B9D" fill-opacity=".15" transform="translate(16 23)"><circle cx="27.318" cy="10.097" r="9.774"/><circle cx="11.408" cy="39.393" r="10.927"/><circle cx="19.504" cy="45.043" r="2.443"/><circle cx="30.564" cy="54.858" r="10.927"/><circle cx="55.127" cy="43.852" r="8.104"/><circle cx="44.06" cy="62.298" r="2.443"/><circle cx="44.882" cy="68.424" r="8.464"/><circle cx="46.943" cy="73.241" r="7.33"/><circle cx="75.439" cy="54.247" r="8.81"/><circle cx="68.221" cy="81.199" r="3.455"/><circle cx="64.042" cy="90.956" r="1.728"/></g></g></g></svg>