<svg xmlns="http://www.w3.org/2000/svg" xmlns:xlink="http://www.w3.org/1999/xlink" width="305" height="256"><defs><path id="a" d="M0 0h370v256H0z"/><path id="c" d="M310.211 280.17C310.211 125.457 184.804.038 30.106.038c-43.754 0-38.995 93.979 14.277 281.938 177.219 46.253 265.828 45.65 265.828-1.806z"/></defs><g fill="none" fill-rule="evenodd"><mask id="b" fill="#fff"><use xlink:href="#a"/></mask><g mask="url(#b)"><g transform="rotate(38.5 178.016 48.352)"><mask id="d" fill="#fff"><use xlink:href="#c"/></mask><use fill="#FFF" xlink:href="#c"/><path fill="#E1F2F2" fill-rule="nonzero" d="M201.153-7.653L113.977 139.05a163.884 163.884 0 0144.428 38.709L289.93 72.896 201.153-7.653z" mask="url(#d)"/><path fill="#F9E7E5" fill-rule="nonzero" d="M327.046 174.691l-140.78 54.985a163.845 163.845 0 00-27.86-51.917L260.77 96.144l66.275 78.547z" mask="url(#d)"/></g><path stroke="#FFF" stroke-width="4" d="M65 137l145-.001"/><g fill-rule="nonzero"><path fill="#9E2C30" stroke="#9E2C30" d="M84.42 136.914c.66 0 1.294-.266 1.757-.737.462-.47.716-1.107.703-1.766a168.286 168.286 0 00-9.96-53.907 2.472 2.472 0 00-3.194-1.466h0a2.454 2.454 0 00-1.444 3.128 163.384 163.384 0 019.67 52.337 2.462 2.462 0 002.468 2.411h0z"/><path fill="#97759F" stroke="#97759F" d="M90.993 136.888c.66 0 1.293-.266 1.756-.736a2.45 2.45 0 00.704-1.765 174.821 174.821 0 00-10.382-56.19 2.472 2.472 0 00-3.194-1.465h0a2.454 2.454 0 00-1.443 3.129 169.92 169.92 0 0110.091 54.615 2.462 2.462 0 002.468 2.412h0z"/><path fill="#C6B2C9" stroke="#C6B2C9" d="M97.566 136.863c.66 0 1.293-.266 1.756-.736.462-.47.716-1.106.704-1.765a181.357 181.357 0 00-10.804-58.474 2.472 2.472 0 00-3.193-1.464h0a2.454 2.454 0 00-1.443 3.13 176.455 176.455 0 0110.512 56.895 2.462 2.462 0 002.468 2.414z"/><path fill="#8B6594" stroke="#8B6594" d="M104.138 136.838a2.467 2.467 0 001.755-.736c.463-.47.717-1.105.705-1.764A187.892 187.892 0 0095.372 73.58a2.472 2.472 0 00-3.193-1.463h0a2.454 2.454 0 00-1.442 3.132 182.99 182.99 0 0110.933 59.174 2.462 2.462 0 002.468 2.415z"/><path fill="#97759F" stroke="#97759F" d="M110.71 136.812a2.456 2.456 0 002.461-2.498 194.427 194.427 0 00-11.648-63.042 2.472 2.472 0 00-3.192-1.462h0a2.454 2.454 0 00-1.443 3.133 189.526 189.526 0 0111.355 61.453 2.462 2.462 0 002.467 2.416z"/><path fill="#AE93B4" stroke="#AE93B4" d="M117.283 136.786a2.464 2.464 0 002.461-2.497 200.963 200.963 0 00-12.07-65.325 2.472 2.472 0 00-3.192-1.46h0a2.454 2.454 0 00-1.442 3.133 196.061 196.061 0 0111.775 63.732 2.462 2.462 0 002.468 2.417z"/><path fill="#2E6395" stroke="#2E6395" d="M123.855 136.76a2.455 2.455 0 002.461-2.496 207.498 207.498 0 00-12.492-67.608 2.472 2.472 0 00-3.192-1.46 2.454 2.454 0 00-1.441 3.135 202.597 202.597 0 0112.197 66.011 2.462 2.462 0 002.467 2.418z"/><path fill="#8B6594" stroke="#8B6594" d="M132.182 136a2.452 2.452 0 00.707-1.76 214.034 214.034 0 00-12.914-69.892 2.472 2.472 0 00-3.191-1.459 2.454 2.454 0 00-1.442 3.136 209.132 209.132 0 0112.618 68.291 2.467 2.467 0 004.222 1.685z"/><path fill="#97759F" stroke="#97759F" d="M137 136.709c.66 0 1.291-.265 1.754-.734a2.452 2.452 0 00.707-1.76 220.57 220.57 0 00-13.336-72.175 2.472 2.472 0 00-3.191-1.458h0a2.454 2.454 0 00-1.441 3.137 215.668 215.668 0 0113.04 70.57 2.462 2.462 0 002.467 2.42h0z"/><path fill="#97759F" stroke="#97759F" d="M143.573 136.683c.66 0 1.29-.265 1.753-.733a2.452 2.452 0 00.707-1.76 227.104 227.104 0 00-13.757-74.458 2.472 2.472 0 00-3.19-1.457h0a2.454 2.454 0 00-1.442 3.137 222.203 222.203 0 0113.46 72.85 2.462 2.462 0 002.469 2.421h0z"/><path fill="#AE93B4" stroke="#AE93B4" d="M150.147 137.969a2.47 2.47 0 011.756.729c.463.467.72 1.1.712 1.758a233.56 233.56 0 01-13.962 76.77 2.459 2.459 0 01-1.287 1.397 2.47 2.47 0 01-1.9.067h0a2.456 2.456 0 01-1.45-3.135 228.66 228.66 0 0013.67-75.16 2.46 2.46 0 012.461-2.426zm6.571-1.337c.659 0 1.29-.264 1.753-.733a2.452 2.452 0 00.708-1.759 240.094 240.094 0 00-3.417-37.006 2.457 2.457 0 00-1.018-1.602 2.471 2.471 0 00-1.858-.402h0a2.457 2.457 0 00-1.983 2.829c2.05 11.98 3.17 24.1 3.347 36.251a2.462 2.462 0 002.468 2.422h0zm-4.078-42.828a2.464 2.464 0 001.593-1.036 2.45 2.45 0 00.379-1.857 240.274 240.274 0 00-10.034-35.794 2.472 2.472 0 00-3.19-1.456h0a2.454 2.454 0 00-1.441 3.14 235.37 235.37 0 019.83 35.062 2.465 2.465 0 002.864 1.94z"/><path fill="#C7B4CB" stroke="#C7B4CB" d="M163.29 136.606c.66 0 1.29-.264 1.753-.732a2.452 2.452 0 00.708-1.759 246.71 246.71 0 00-15.023-81.305 2.472 2.472 0 00-3.19-1.455h0a2.454 2.454 0 00-1.44 3.138 241.81 241.81 0 0114.725 79.69 2.462 2.462 0 002.467 2.423h0z"/><path fill="#9E2C30" stroke="#9E2C30" d="M169.863 136.581c.659 0 1.29-.264 1.752-.732a2.452 2.452 0 00.708-1.759 253.246 253.246 0 00-15.444-83.588 2.472 2.472 0 00-3.19-1.455h0a2.454 2.454 0 00-1.44 3.14 248.345 248.345 0 0115.146 81.97 2.462 2.462 0 002.468 2.424h0z"/><path fill="#97759F" stroke="#97759F" d="M176.435 136.555a2.462 2.462 0 002.46-2.49 259.782 259.782 0 00-15.866-85.87 2.472 2.472 0 00-3.19-1.454h0a2.454 2.454 0 00-1.439 3.14 254.88 254.88 0 0115.567 84.25 2.462 2.462 0 002.468 2.424h0z"/></g><text fill="#242424" font-family="OpenSans, Open Sans" font-size="18" letter-spacing=".643" opacity=".703" transform="translate(3.843 11.435)"><tspan x="212" y="69.797">Men</tspan></text><text fill="#242424" font-family="OpenSans, Open Sans" font-size="18" letter-spacing=".643" opacity=".703" transform="translate(3.843 11.435)"><tspan x="12.64" y="19.565">Continent</tspan></text><path stroke="#242424" stroke-linecap="square" stroke-width="2" opacity=".7" d="M106.5 35.5l18 31"/><text fill="#242424" font-family="OpenSans, Open Sans" font-size="18" letter-spacing=".643" opacity=".703" transform="translate(3.843 11.435)"><tspan x="212" y="190.203">Women</tspan></text><text fill="#242424" font-family="OpenSans, Open Sans" font-size="20" letter-spacing=".714" transform="translate(3.843 11.435)"><tspan x="212" y="131">Category</tspan></text></g></g></svg>