<svg xmlns="http://www.w3.org/2000/svg" width="15" height="13"><path fill="#BB8A35" d="M12.05 12.541c.852 0 1.557-.279 2.114-.836.557-.557.836-1.262.836-2.115a2.61 2.61 0 00-.787-1.918 2.61 2.61 0 00-1.918-.787l-1.475.492c0-1.475.344-2.738 1.032-3.787.689-1.049 1.656-2 2.902-2.852L14.262 0c-1.737.984-3.073 2.221-4.008 3.713C9.32 5.205 8.852 7 8.852 9.098c0 1.115.287 1.968.861 2.558.574.59 1.353.885 2.336.885zm-8.853 0c.852 0 1.557-.279 2.114-.836.558-.557.837-1.262.837-2.115a2.61 2.61 0 00-.787-1.918 2.61 2.61 0 00-1.918-.787l-1.476.492c0-1.475.344-2.738 1.033-3.787s1.656-2 2.902-2.852L5.41 0C3.672.984 2.336 2.221 1.402 3.713.467 5.205 0 7 0 9.098c0 1.115.287 1.968.86 2.558.574.59 1.353.885 2.337.885z"/></svg>