<svg xmlns="http://www.w3.org/2000/svg" width="512" height="394"><g fill="none"><path fill="#F2F1E7" d="M284.83 210.9c-18.472-1.421-37.048.129-55.529-1.167-14.649-1.027-29.771-1.227-44.471-.667-21.413.816-42.749 3.515-64.147 4.717-19.512 1.096-39.085 3.762-58.621 3.875-6.275.036-12.552.001-18.827.001-2.332 0-10.823-1.331-12.793.536-1.856 1.759-.543 9.325-.548 11.452a155.182 155.182 0 001.687 23.257c2.138 14.476 5.834 29.235 10.349 43.174 9.92 30.625 35.695 49.72 65.621 59.141 43.663 13.746 89.203 12.25 134.539 12.131 38.955-.103 77.886-5.612 116.855-5.819 33.796-.179 67.69-9.314 92.378-33.642 18.82-18.545 22.174-45.525 27.122-70.275 2.471-12.353 1.677-24.229.965-36.69-.27-4.707-.788-5.976-5.619-7.148-10.411-2.527-23.943.223-34.479.464-27.147.621-54.43.687-81.563-.793-23.462-1.28-47.571-4.274-72.919-2.547z"/><path fill="#D2D2CA" d="M246.813 323.339c-16.639-3.896-33.056-9.424-45.141-20.84-11.168-10.55-17.939-26.892-22.77-41.288-1.592-4.744-2.063-9.603-3.248-14.415-.658-2.674-2.48-5.757-2.251-8.597.362-4.475 4.673-6.963 8.342-8.624 8.65-3.917 18.955-4.847 28.34-5.396 29.052-1.699 58.542-2.176 87.63-.868 6.579.295 13.024.716 19.452-.099 5.253-.666 11.88-1.412 15.901 3.073 4.598 5.127.802 13.383-2.358 18.216-3.235 4.947-7.571 7.783-4.163 13.772 1.52 2.669 4.797 4.321 5.187 7.572.479 3.992-3.73 6.453-4.708 10.068-2.344 8.673 7.222 14.333 14.854 13.581 13.835-1.363 23.351-11.171 27.601-23.727 3.316-9.797.793-19.338 2.816-29.01 3.278-15.652 22.943-10.432 34.338-10.137 17.568.454 35.136.953 52.698 1.622 3.221.123 29.25.418 23.409-8.178-2.851-4.196-17.048-3.176-21.354-3.355-9.88-.41-19.361-.152-29.248.387-44.525 2.428-90.217-.271-134.724-2.439-24.286-1.184-48.466-2.417-72.749-3.381-27.977-1.112-55.038-.178-82.894 1.193-13.126.646-26.28.752-39.394 1.669-20.514 1.434-41.548-.37-61.955 1.575-5.575.531-6.979 1.542-7.562 7.54-1.077 11.082.036 22.825.749 33.898 1.515 23.525 8.6 50.034 24.756 67.981 33.654 37.385 84.521 42.681 132.201 44.103 15.093.45 30.211 1.523 45.307.56 13.5-.861 26.726-2.435 40.273-2.955 7.471-.287 14.906-1.425 22.393-1.781 19.692-.938 39.312-3.7 59.008-4.865 19.858-1.174 39.862-1.349 59.149-6.881 4.584-1.314 11.336-3.283 12.021-8.501 1.307-9.974-16.891-7.02-22.237-6.887-17.132.425-33.514 2.291-50.727 1.517-27.945-1.257-55.758-4.858-83.115-10.692-8.272-1.766-17.08-3.363-25.827-5.411z"/><path fill="#F2F1E7" d="M257.309 185.31c-11.346-3.627-25.951-2.876-37.85-2.908-13.003-.036-26.003-.341-39.011-.453-23.344-.202-46.578.298-69.927.911-20.246.531-40.376 1.506-60.574 2.558-10.701.557-22.745-1.105-32.961 2.636-8.045 2.947-14.708 13.221-6.06 20.272 3.865 3.152 10.823 2.844 15.323 3.279 8.379.811 16.579 1.996 25.031 2.421 19.621.984 39.058 2.632 58.715 2.672 26.824.054 53.632-2.462 80.337-4.518 17.884-1.377 36.362-1.464 54.262-.761 18.21.716 36.558-1.788 54.757-.045 42.42 4.062 85.436-4.125 127.815 2.2 11.448 1.709 23.449 1.684 35.009 1.672 10.694-.011 24.034 1.549 34.068-2.757 7.146-3.067 11.542-7.353 9.733-15.242-1.812-7.908-8.855-9.953-16.177-11.458-36.828-7.572-75.278-5.79-112.66-5.79-20.891 0-41.707.966-62.54 2.16-18.865 1.079-38.041 1.198-57.29 3.151z"/><path fill="#D2D2CA" d="M104.784 200.456c5.805-.455 11.604-.881 17.395-1.031 17.947-.465 35.887-1.185 53.819-2.015 38.524-1.782 77.046-4.595 115.53-4.32 39.925.286 79.83 1.653 119.734 2.912 9.574.302 19.148.598 28.725.872 18.301.522 36.689 2.57 54.944 3.898 3.608.263 10.228-.091 10.608 4.808 1.275 16.425-72.892 10.428-81.301 10.105-37.138-1.428-74.389-5.718-111.567-5.25-9.5.12-19.063.59-28.621.491-35.173-.366-70.168-.7-105.287 1.906-33.409 2.479-67.438 3.958-100.913 3.864-20.006-.056-40.745 1.53-60.531-2.391-3.654-.724-11.038-1.907-11.128-6.503-.163-8.455 20.978-5.516 25.728-5.565 13.958-.147 28.012-.971 41.966-.456 10.31.379 20.614-.519 30.899-1.325z"/><path fill="#BDBDB5" d="M67.071 347.542C58.54 353.1 46.2 374.974 54.98 385.096c10.969 12.646 22.561-9.496 28.813-15.885 5.704-5.83 20.67-8.725 8.301-16.371-6.122-3.785-18.858-13.095-25.023-5.298z"/><path fill="#F2F1E7" d="M432.095 345.611c-3.229 1.152-24.068 7.279-20.712 15.46 1.366 3.329 9.349 3.958 12.179 5.894 3.727 2.55 7.377 6.219 9.754 10.027 3.175 5.089 4.339 9.974 10.816 11.627 14.051 3.587 16.014-9.503 12.588-19.328-1.727-4.949-16.053-29.416-24.625-23.68z"/><path d="M213.499 135.999c2.885-15.673 6.469-31.97-7.941-43.036-11.688-8.976-25.687-4.5-34.17 6.514-6.145-3.557-8.839-12.321-15.779-15.99-6.441-3.405-16.46-3.924-22.535.594-7.591 5.644-8.753 17.215-14.586 24.344-3.98 4.865-5.58 2.416-10.869-1.444-5.515-4.025-11.557-8.832-18.599-8.991-9.037-.204-19.112 3.75-22.067 12.822-4.755 14.596-1.848 29.906-1.951 44.658-9.904.56-19.897-3.79-28.45 3.491-5.004 4.259-11.218 18.434-5.808 23.743 3.677 3.608 10.916 2.878 15.535 3.156 11.995.719 23.773.233 35.726-.889 23.354-2.192 47.436-3.535 70.871-3.476 24.226.061 48.281 2.521 72.54 2.504 22.249-.016 44.104-1.213 66.27-2.876 10.13-.76 19.814-.625 29.885-.666 10.532-.043 3.276 6.119 2.395 13.501-1.54 12.879 12.522 17.873 22.97 19.083-.008 4.1-2.451 7.475-1.97 11.958.473 4.411 2.289 7.904 3.922 11.889 3.751 9.155-1.711 10.063-5.309 18.636-3.276 7.808-1.215 14.673 4.4 20.315 3.896 3.914 8.199 6.661 13.986 6.231 6.884-.511 8.057-4.351 12.545-7.521 6.411-4.529 14.411-3.389 19.975-10.549 6.828-8.786 6.752-18.062.904-27.009-6.068-9.286-7.595-9.747 1.576-18.979 8.519-8.577 11.992-15.463 13.059-27.987.264-3.091-1.131-7.151 1.47-9.56 3.103-2.873 14.886-.167 18.507.159 8.274.745 16.463 1.102 24.753 1.361 4.497.14 10.81 1.759 15.257.513 2.738-.767 2.469.273 3.389-2.042 1.111-2.8-2.385-13.179-3.632-15.749-4.856-10.007-16.144-10.656-25.893-10.752-10.92-.107-9.706-11.602-17.644-16.244-7.721-4.515-18.955-2.322-25.666 2.925-2.204 1.723-4.594 5.943-7.541 5.518-2.491-.359-5.946-5.581-7.736-7.342-8.998-8.851-18.204-7.662-27.8.676-4.398 3.822-4.506 6.366-10.874 4.031-4.957-1.818-7.193-4.926-12.906-4.312-9.461 1.017-13.945 7.783-17.632 15.724-2.218 4.778-3.101 8.474-8.214 7.04-7.121-1.999-10.553-8.48-19.297-7.931-4.181.263-10.297 6.212-14.174 5.003-4.022-1.255-2.831-6.397-8.081-7.568-7.324-1.633-15.354 1.683-22.719.88-1.064-4.848-1.358-9.467-4.362-13.543-6.408-8.687-16.046-4.451-25.73-2.813zm42.5-107.5c-13.73-1.011-25.811 10.165-26.005 23.573-.082 5.624 1.674 9.451 6.616 12.427 4.345 2.616 8.467.856 12.787 2.5 3.816 1.453 4.064 5.169 7.555 8.188 3.939 3.406 10.643 5.174 15.718 4.137 13.837-2.826 20.061-22.434 16.083-34.35-3.283-9.834-18.508-21.96-32.754-16.475zm74.5-23c-11.578.239-15.246 15.899-10.135 24.035 3.514 5.591 14.637 10.228 21.035 7.932 7.568-2.716 11.045-11.805 8.609-19.066-2.044-6.098-11.395-15.003-19.509-12.901z" fill="#B3E2EE"/><path d="M126.291 95.309c2.319 4.378-2.272 14.637-1.975 20.075.41 7.474 2.816 15.038 7.661 20.837 4.758 5.694 5.211 7.604 5.099 14.988-.19 12.579 10.512 15.792 21.662 15.293 7.833-.35 17.461-2.79 25.232-.964 2.622.616 4.724 2.416 7.343 3.214 4.937 1.505 10.32.567 15.359.356 11.147-.466 21.518-.715 31.967 3.393 6.323 2.485 13.792 3.214 19.816 6.137-29.396 7.476-60.626 4.392-90.754 4.36-27.771-.029-55.441-3-83.176-.999-15.156 1.094-32.137 2.872-47.234.749-12.857-1.808-4.507-17.428 1.918-23.396 3.503-3.253 9.148-4.949 13.951-4.891 3.939.048 7.836 2.229 11.761 1.385.583-10.463-3.506-19.964-1.94-30.637 1.805-12.307 5.441-22.15 17.998-26.417 9.23-3.136 17.589-.324 24.057 6.844 2.931 3.248 5.842 10.292 10.963 7.396 3.355-1.897 5.07-9.251 6.76-12.528 1.034-2.005 1.687-3.915 3.532-5.195zm201.208 85.19c-4.428 9.762-6.619 20.992 3.302 28.209 5.131 3.733 11.762 3.685 17.619 5.378-.262 4.781-4.655 7.86-3.566 13.264 1.142 5.663 7.079 9.054 8.669 14.647 1.884 6.629-3.965 7.22-7.573 12.028-3.008 4.008-4.454 10.761-3.485 15.85 1.328 6.984 8.426 12.804 15.548 10.898 13.357-3.573 7.175-22.091 5.989-31.785-.954-7.794-.497-10.338 3.074-17.31 2.219-4.33 3.486-9.552 1.868-14.343-1.536-4.542-5.792-8.481-8.479-12.359-3.694-5.332-2.307-6.359-2.755-12.175-.37-4.816-3.45-4.905-5.784-9.333-2.215-4.203.054-11.861-2.632-15.317-8.059-10.374-19.318 10.314-21.795 12.348zm-78.5-150.5c-5.486 5.643-10.572 21.623.174 24.262 4.81 1.181 12.761-3.449 16.871-.794 3.205 2.069 1.816 5.928 2.87 8.929 1.735 4.939 5.396 5.229 10.028 5.105 2.234 10.569-10.252 12.572-17.307 10.121-2.854-.993-6.92-2.106-9.362-3.864-3.021-2.175-2.537-6.682-4.964-8.596-5.741-4.53-16.998 8.03-18.709-4.381-1.747-12.675 6.62-23.267 20.399-30.782zm78.5-21.5c-1.99 5 .956 11.02 5.342 13.827 2.789 1.785 10.008 2.064 11.94 4.699 3.786 5.161-6.013 11.438-10.394 10.982-4.059-.423-11.257-5.113-13.438-8.521-4.391-6.863-.628-13.739 6.55-20.987z" fill="#73CEE5"/><path fill="#E0E1DD" d="M372.999 60.999c-6.883 3.735-16.263 26.007-13.635 34.398 1.501 4.795 11.339 8.326 15.823 6.583 6.302-2.451 4.925-12.934 10.354-16.734 5.177-3.624 12.322-.057 15.957 4.118 8.516 9.78-3.877 37.718 7.951 42.772 2.733 1.168 10.664 2.704 13.473 1.25 3.998-2.07 4.229-11.14 4.537-15.669.777-11.421.813-24.283-1.23-35.449-4-21.852-33.245-28.884-53.23-21.269z"/><path fill="#D2D2CC" d="M388.999 72.999c-9.462.749-24.585 13.034-21.037 23.884 1.836 5.616 7.538 4.067 10.562.41 3.709-4.488 3.938-13.199 9.716-15.75 4.761-2.102 10.124.519 12.906 4.447 7.317 10.329 4.453 24.545 3.855 36.184-.215 4.18.035 8.078 4.998 8.85 9.851 1.533 9.398-16.43 8.8-22.271-1.306-12.75-9.858-36.321-29.8-35.754z"/><path fill="#FFC94E" d="M253.999 123.499c-.275 9.239-2.661 18.694-1.933 27.936 6.038 1.871 13.47-1.18 19.856-.86.548 3.594-2.072 6.38-1.847 9.851 4.585 1.098 11.914-.305 14.31-4.855 2.053-3.897.104-11.302.113-15.585.012-4.785.327-9.681-.438-14.414-.901-5.567-2.173-6.239-7.853-6.572-4.87-.287-16.85.029-22.208 4.499z"/><g fill="#F27183"><path d="M316.499 104.999c-15.163 2.497-14.664 13.44-14.025 26.572.362 7.473-3.699 16.41-2.229 23.66.854 4.211 3.389 5.094 8.291 5.802 7.443 1.074 6.195-2.299 9.149-7.94 3.436-6.563 13.946-15.288 21.862-13.15 2.438-6.294 4.661-20.752 1.932-27.453-3.076-7.549-16.2-7.963-24.98-7.491z"/><path d="M317.499 80.499c-8.305 1.13-10.565 16.216-7.998 22.67 1.465 3.683 12.229 5.667 16.264 2.848 5.891-4.115 3.026-31.711-8.266-25.518z"/></g><path fill="#C6465C" d="M301.999 116.999c.151 8.182-.352 16.387-1.027 24.497-.305 3.649-1.186 8.308-.472 11.946.907 4.628 2.286 5.079 7.132 5.554 7.761.76 8.125-1.55 7.986-8.997-.17-9.091-2.002-18.15-1.623-27.2.136-3.246 1.677-8.639.15-11.724-3.878-7.845-15.666-.904-12.146 5.924z"/><path fill="#FFD274" d="M264.499 121.499c.226 6.795 1.402 13.365 2.314 20.059.616 4.524 1.624 4.662-1.52 6.465-2.277 1.307-10.062 1.263-12.718.855-.628-13.061-4.728-29.713 11.924-27.379z"/><path fill="#000" d="M509.824 191.905c-5.39-10.638-17.369-11.78-28.211-11.756a5.65 5.65 0 00-.355-.958c-2.202-4.595-1.42-9.94-3.156-14.696-1.95-5.336-6.148-9.302-10.782-12.397-8.189-5.47-16.677-4.729-25.228-1.818-2.457-5.99-5.669-12.086-10.313-16.48a4.83 4.83 0 00-.212-1.564c-2.572-8.603.686-19.167.718-28.047.036-9.973.536-20.44-3.81-29.702-8.403-17.915-30.232-25.094-48.347-19.154-9.016 2.957-15.39 8.476-18.963 17.317-2.682 6.635-6.05 16.3-3.732 23.474 2.361 7.308 11.617 9.564 18.447 9.174 7.763-.443 8.186-6.014 9.389-12.201.889-4.575 3.944-9.042 8.912-6.42 4.693 2.477 6.514 7.686 7.383 12.588 1.949 10.988-.686 22.445 1.387 33.373-1.271.909-2.449 1.941-3.477 3.135-.812.941-3.134 5.531-4.352 5.974.45-.278-1.167-1.811-1.421-2.139-.885-1.144-1.592-2.433-2.421-3.617-1.639-2.342-3.41-4.699-5.821-6.303-5.294-3.521-12.469-3.76-18.141-1.062-2.856 1.358-5.384 3.401-7.683 5.554-2.094 1.96-5.822 4.704-7.063 7.32-.939-.4-2.235-.817-2.377-.88-1.577-.711-3.088-1.545-4.596-2.382a3.992 3.992 0 00-.084-1.088c-2.261-9.907 4.859-23.737-4.229-31.513-2.255-1.93-5.068-3.179-8.135-3.929.264-1.989-.658-3.761-.91-5.743-.323-2.547-.287-5.131-.613-7.683-.663-5.184-2.768-10.298-8.398-11.511-11.09-2.387-16.563 6.303-16.719 15.535-.242 1.245-.342 2.515-.378 3.68-.075 2.454-.261 5.524.136 8.24-5.713 2.819-9.011 7.685-9.769 15.028-.638 6.176-.274 12.41.226 18.58.387 4.783.504 9.676.928 14.498a49.349 49.349 0 00-4.282-.777 32.079 32.079 0 00-5.808-.24c-1.457-13.874 4.621-37.542-14.791-36.369-6.41.387-17.079-.637-21.609 4.956-2.281 2.816-2.654 6.417-2.669 9.93-1.09 6.755-.666 15.306-.289 20.104-.731.185-1.464.364-2.196.551l-.083.02c-.11-1.557-1.04-4.97-1.152-5.766-.368-2.63-.796-5.18-1.931-7.609-2.316-4.969-7.473-8.083-12.87-8.595-3.769-.357-7.254.547-10.66 1.808 3.148-14.613 1.944-29.651-10.273-40.483-5.753-5.1-12.95-8.25-20.703-6.389-6.168 1.48-11.292 5.598-15.624 10.191-3.472-3.943-5.799-9.08-9.405-12.842-5.21-5.436-12.269-7.239-19.525-5.276-14.968 4.048-22.399 19.495-28.169 32.901-2.955-2.292-5.289-5.15-8.184-7.828-3.701-3.423-8.273-5.863-13.234-6.846-10.092-2-20.427 1.942-27.191 9.569-11.602 13.083-9.432 31.107-5.885 47.187-11.009-1.866-21.949-.438-28.85 10.274-3.071 4.771-5.974 13.393-3.984 19.358-10.253.15-21.068 1.789-26.112 11.744-2.878 5.68-3.063 12.58.433 18.04 3.583 5.598 10.584 7.979 16.757 9.401 2.435.561 4.901.979 7.39 1.306 1.344 8.65 1.314 17.692 1.689 26.325.465 10.724 1.294 21.419 3.227 31.992 3.693 20.207 10.964 40.504 25.521 55.472 3.33 3.424 6.928 6.521 10.741 9.333-4.22 2.327-7.738 5.783-10.671 9.56-6.129 7.896-11.08 19.103-7.554 29.127 4.445 12.633 18.748 14.989 27.759 5.714 4.236-4.362 6.438-10.181 10.117-14.96 2.348-3.051 5.383-5.177 8.955-6.561 4.456-1.727 9.66-4.308 14.464-3.31 5.72 1.188 11.341 2.776 17.096 3.852 11.171 2.087 22.465 3.455 33.773 4.542 13.081 1.258 26.335 1.271 39.465 1.856 1.569.07 3.137.134 4.703.187 7.081 1.729 15.241 1.107 21.841.701 12.383-.762 24.561-2.305 36.99-1.845 7.041.261 14.099.589 21.156.802 8.159.726 16.378.522 24.635.154.919-.041 1.838-.074 2.757-.11 1.461-.032 2.94-.083 4.429-.161 10.768-.357 21.581-.556 32.28-1.585 17.73-1.705 37.153-4.26 55.431-9.683.408 1.112 1.281 2.055 2.65 2.426 6.712 1.816 11.781 2.985 16.206 8.733 3.679 4.78 5.882 10.599 10.118 14.961 9.01 9.275 23.313 6.919 27.758-5.714 3.527-10.024-1.424-21.231-7.554-29.127-2.931-3.777-6.45-7.233-10.67-9.56 3.813-2.811 7.411-5.908 10.741-9.333 14.557-14.968 21.828-35.265 25.521-55.472 1.932-10.573 2.762-21.268 3.227-31.992.375-8.633.346-17.675 1.689-26.325a78.7 78.7 0 007.39-1.306c6.173-1.421 13.174-3.803 16.757-9.401 3.495-5.46 3.31-12.359.432-18.039zM386.286 78.245c-3.879 1.836-6.34 5.372-7.744 9.325-.778 2.193-.547 4.661-1.317 6.87-1.187 3.405-2.698 3.05-5.983 2.488-2.911-.499-5.896-1.23-6.417-4.477-.549-3.433.942-7.626 1.827-10.88 1.109-4.081 2.431-8.333 5.045-11.735 5.545-7.22 16.903-9.492 25.52-8.576 9.084.966 17.598 6.276 22.604 13.904 5.864 8.932 3.91 21.156 3.616 31.252-.207 7.088-2.095 14.518-1.836 21.714-4.1-.92-8.332-.391-12.275 1.111 1.398-7.106 1.843-14.547 1.713-21.658-.15-8.282-1.199-17.36-6.781-23.888-4.339-5.073-11.479-8.523-17.972-5.45zm-72.234 11.068c.524-2.989 1.768-4.435 4.806-4.988 1.512-.275 2.94-.517 4.052.64 2.867 2.981.643 11.016 2.054 15.806-3.997-.031-7.985.454-11.433 1.144.527-4.148-.207-8.458.521-12.602zm-9.61 38.627c.112-7.595-.555-14.839 7.958-17.247 5.806-1.643 19.618-3.718 23.995 1.787 2.719 3.418.938 10.264.52 14.188-.276 2.587-.541 5.24-.33 7.821-5.575-.95-11.059.974-15.266 5.446-4.457 4.737-5.707 11.099-8.106 16.908-3.278-.93-6.521-2.023-9.788-2.997 2.809-7.932.901-17.948 1.017-25.906zm-47.545-2.97c1.506-1.888 4.969-1.505 7.162-1.629 3.408-.193 6.816-.709 10.229-.765 1.963-.032 2.89-.2 3.891 1.43 1.65 2.686 1.348 7.43 1.354 10.444.012 5.928-.914 12.383.135 18.351-.399.131-.8.258-1.196.406-.604-3.923-2.718-7.226-7.56-8.213-5.054-1.031-10.344.759-15.331 2.56-.123-.984-.265-2.027-.412-3.107.148-2.138.22-4.277.304-6.347.133-3.329-.789-10.356 1.424-13.13zM40.106 164.097c7.212-7.878 17.125-5.468 26.085-2.689 3.632 1.126 6.549-2.449 5.825-5.825-2.987-13.939-9.522-32.209-.607-45.27 5.289-7.748 14.736-11.755 23.839-8.756 8.922 2.94 12.006 12.696 20.164 16.628 1.894.913 4.725.677 5.743-1.505 5.223-11.197 11.284-28.214 24.466-32.061 12.61-3.68 16.145 13.477 23.918 19.8 2.054 1.67 5.172 2.186 7.175 0 3.679-4.013 7.889-8.801 13.243-10.511 5.718-1.826 10.642 2.027 14.28 6.09 9.887 11.044 5.15 24.815 2.291 37.591-1.038 4.636 3.52 7.767 7.609 5.85 4.832-2.265 11.651-7.064 17.139-4.882 4.505 1.79 3.914 7.599 4.496 11.654.949 6.632 4.624 10.738 11.541 9.903 5.666-.684 10.948-3.225 16.431-4.679 1.265-.336 4.784-1.431 5.651-.631-.77-.709-1.013 4.516-1.29 5.643-.932 3.79 3.572 8.266 7.233 5.561 6.072-4.486 12.125-6.458 19.608-4.808 6.64 1.463 12.991 4.049 19.595 5.676 1.989.49 4.263-.315 5.291-2.153 3.416-6.107 4.192-16.74 10.839-20.321 5.879-3.169 13.785 4.157 19.368 6.141 6.14 2.182 9.094-2.731 12.946-6.709 4.944-5.105 12.646-11.877 19.085-4.691 3.932 4.388 5.916 11.401 12.765 12.02 6.915.625 8.575-6.021 12.81-9.788 13.359-11.883 22.924 5.649 26.839 16.548.819 2.283 3.455 4.524 6.081 3.453 8.369-3.414 15.703-5.686 23.376.527 5.956 4.823 5.517 11.696 7.214 18.319-14.895-.195-29.858-2.173-44.726-2.87-1.474-.069-2.947-.126-4.421-.188-4.137-.783-8.385-.687-12.523-1.69-3.806-.922-7.355 2.458-6.33 6.33 3.354 12.656-2.919 33.779-17.601 36.176-3.766.615-4.722 5.944-2.204 8.35 4.776 4.562 10.291 8.84 11.453 15.747 1.043 6.198-.91 12.935-4.241 18.146-1.629 2.548-3.813 5.11-6.411 6.704-3.346 2.053-7.451 1.702-10.922 3.482-5.608 2.877-10.988 9.944-18.097 7.744-6.668-2.063-10.293-9.007-9.244-15.697.974-6.209 7.367-8.644 10.216-13.832 2.569-4.678.133-9.544-1.7-13.994-2.688-6.531-2.57-12.861-1.144-19.792.68-3.3-1.461-6.502-4.993-6.555-7.698-.113-17.266-.486-19.796-9.401-1.808-6.37 4.635-15.802 2.848-19.891-2.759-6.311-15.406-1.361-19.775-.965-.269.024-.537.051-.806.076-16.677.438-33.354.997-50.044 1.141-15.792.136-31.589-.093-47.375-.569-2.913-.087-5.826-.177-8.738-.259-1.377-.13-2.753-.264-4.129-.389-18.863-1.711-37.643-2.166-56.572-2.063-19.443.104-38.889.479-58.312 1.388-16.601.777-33.321 3.161-49.931 2.866l-.808-.015c-2.058-4.723 2.516-13.09 5.277-16.105zm-15.021 46.112c-4.988-.915-13.836-2.509-14.1-8.983-.521-12.744 20.193-10.108 27.866-10.135 15.861-.055 31.879-2.489 47.739-3.312 17.722-.919 35.463-1.399 53.206-1.639 19.591-.265 39.075-.291 58.635.995 12.017.79 24.006 1.492 35.994 1.427 9.09.249 18.181.403 27.274.416 16.135.021 32.242-.741 48.368-1.137 3.53-.086 7.057-.179 10.584-.27-.99 3.998-1.184 8.287-.917 11.063 1.085 11.282-15.895 7.161-23.496 7.177-9.627-.446-19.364-.743-28.836.144-7.379.03-14.758.012-22.128-.17a351.313 351.313 0 01-5.227-.174 144.28 144.28 0 00-3.901-.166c-8.422-.389-16.838-.912-25.273-.931-5.876-.013-11.678.239-17.492 1.133-2.098.322-4.196.687-6.238 1.267-13.439.459-26.877.989-40.314 1.516-17.734.696-35.452 1.701-53.183 2.474-15.82.69-31.61.326-47.435.463-7.032.06-14.184.115-21.126-1.158zm54.443 156.786c-3.622 4.768-11.819 24.602-19.494 14.347-4.501-6.015-.376-15.718 2.982-21.219 2.182-3.573 5.002-7.021 8.318-9.61 1.014-.792 2.278-1.434 3.561-2.073 5.467 3.347 11.27 6.213 17.307 8.662-4.984 1.833-9.373 5.549-12.674 9.893zm369.453-6.872c3.357 5.501 7.483 15.205 2.982 21.219-7.676 10.255-15.872-9.579-19.494-14.347-3.301-4.344-7.689-8.061-12.675-9.894 6.038-2.449 11.841-5.315 17.308-8.662 1.283.639 2.547 1.281 3.561 2.073 3.316 2.59 6.137 6.038 8.318 9.611zm24.756-116.586c-1.089 11.882-2.033 23.585-4.473 35.3-3.983 19.132-11.194 37.745-26.085 50.982-12.53 11.14-28.548 17.498-44.548 21.785-18.871 5.057-38.737 8.311-58.242 9.25-24.842 1.196-49.669.719-74.545.385-10.348-.139-20.543 1.957-30.816 1.727-10.606-.238-21.23.169-31.819-.64-10.545-.805-21.048-.964-31.601-1.472-19.504-.939-39.371-4.193-58.242-9.25-16-4.288-32.018-10.646-44.548-21.785-14.891-13.237-22.101-31.85-26.085-50.982-2.439-11.715-3.384-23.418-4.473-35.3-.705-7.693-1.644-15.067-3.934-22.175 10.206.607 20.624.024 30.658.158 19.112.255 38.215-.884 57.31-1.539 21.854-.749 43.704-1.588 65.56-2.292 10.604-.341 21.209-.639 31.815-.855 35.494-.726 71.125-.561 106.602.705 5.489.196 10.346-.35 15.836.479-.739 5.076-.818 10.44.511 15.17.69 2.458 1.882 4.786 2.793 7.165.452 1.18 1.098 2.506 1.267 3.765.017.119.012.34.012.524-.274.27-.875 1.171-.972 1.277-4.128 4.487-8.013 8.507-9.059 14.729-1.015 6.038-.012 12.359 3.406 17.518 3.448 5.203 9.262 9.146 15.481 9.971 6.551.869 13.085-2.546 18.329-6.169 1.294-.893 2.372-2.033 3.764-2.751 1.938-.999 4.115-.938 6.208-1.459 3.239-.806 6.066-2.426 8.648-4.505 5.011-4.034 8.483-9.617 10.644-15.633 2.298-6.402 2.922-13.801.961-20.374-1.495-5.013-4.491-8.905-7.96-12.479 1.969-1.108 3.769-2.494 5.429-4.061 6.186 1.279 12.733 1.467 19.012.461 8.809.292 17.619.472 26.432.354 10.034-.134 20.452.449 30.658-.158-2.29 7.107-3.23 14.481-3.934 22.174zm13.176-33.328c-6.942 1.273-14.094 1.218-21.127 1.157-10.838-.094-21.689.167-32.525-.079-5.084-.116-17.285 2.301-20.994-1.456-2.421-2.456 3.321-22.509 1.93-22.567 3.737.156 7.475.321 11.211.515 15.859.823 31.878 3.257 47.739 3.312 7.673.027 28.387-2.609 27.866 10.135-.264 6.474-9.112 8.068-14.1 8.983z"/><path fill="#000" d="M248.376 71.117c4.92 8.853 10.851 15.765 22.461 14.184 12.265-1.669 20.612-11.509 23.22-23.211 2.525-11.332.483-24.38-7.178-33.405-7.644-9.005-18.84-9.41-28.214-3.499-6.664-2.363-13.529-1.773-19.129 3.371-2.85 2.618-5.013 5.789-6.947 9.122-3.017 3.557-5.312 7.809-6.594 12.227-1.707 5.88-1.615 12.978 2.904 17.628 5.058 5.204 12.743 5.086 19.477 3.583zm-14.712-20.604c2.438-8.945 10.583-18.383 20.424-17.286.912.238 1.847.576 2.814 1.056 1.383.686 3.261.979 4.618 0 6.74-4.854 13.901-5.605 19.112 1.663 4.728 6.595 5.873 15.781 4.061 23.562-1.808 7.76-6.771 15.013-15.129 16.389-8.529 1.404-11.545-5.968-14.989-12.321-.914-1.687-3.252-2.666-5.097-2.074-4.093 1.312-11.271 3.715-14.808-.145-2.55-2.783-1.906-7.543-1.006-10.844zm97.955-10.014c10.673 3.516 19.101-3.462 21.832-13.611 3.218-11.955-2.708-24.28-15.485-26.456-7.249-1.235-16.024 2.304-20.063 8.369-2.695 2.699-4.228 6.371-3.656 11.377 1.045 9.168 8.76 17.484 17.372 20.321zm-9.415-19.401c.95-3.669.434-7.631 3.666-10.292 2.446-2.014 5.942-2.74 9.031-2.392 7.948.896 12.172 7.5 10.451 15.143-1.307 5.806-4.727 10.726-11.18 8.919-5.133-1.437-9.916-5.738-12.391-10.521a2.43 2.43 0 00.423-.857zm-224.203 141.2c-1.583-5.563 1.01-12.96 7.252-14.175 5.771-1.123 10.745 4.716 14.432 8.393 1.896 1.89 5.775 1.194 6.327-1.67 1.894-9.833-.353-25.158 9.471-31.425 12.388-7.902 13.823 8.833 14.036 17.209.084 3.276 4.32 5.359 6.715 2.781 2.664-2.867 10.221-11.604 12.587-4.07 1.27 4.042-.205 8.888.036 13.059.158 2.739 2.515 4.644 5.244 3.996 4.131-.981 7.013-.706 10.369 1.903 2.76 2.146 4.879 4.464 8.198 5.75 3.999 1.549 5.725-3.772 3.706-6.368-4.871-6.265-11.717-9.885-19.191-9.877.24-6.046.723-12.502-4.178-16.777-5.635-4.915-11.518-2.676-16.437 1.184-1.758-10.713-6.745-21.626-19.765-17.727-13.824 4.14-16.812 18.547-17.796 31.601-5.833-4.424-12.36-7.355-19.723-2.957-7.36 4.397-10.286 14.261-4.109 20.816 1.166 1.235 3.281-.047 2.826-1.646z"/></g></svg>