<svg xmlns="http://www.w3.org/2000/svg" width="522" height="522"><g fill="none"><path fill="#FEF0AE" d="M448.745 284.065L411.7 210.203a24.197 24.197 0 00-21.629-13.349H218.137a24.195 24.195 0 00-19.403 9.74l-57.723 77.472L107.72 327h366.66l-25.635-42.935z"/><path fill="#FEE45A" d="M318.006 206.594a24.195 24.195 0 0119.403-9.74H218.137a24.195 24.195 0 00-19.403 9.74l-57.723 77.472L107.72 327h119.273l33.291-42.934 57.722-77.472z"/><path fill="#B8DDFF" d="M415.18 284.07l-26.92-53.68a6.404 6.404 0 00-5.72-3.54h-11.78l-18.237 14.926v65.031l18.237 10.474h62.35l-17.93-33.211z"/><path fill="#D5EAFF" d="M370.76 284.07v33.21H152.18l26.24-33.21 40.71-54.64a6.408 6.408 0 015.13-2.58h146.5v57.22z"/><path fill="#FEDF30" d="M400.39 284.07H279.72l-25.651 25.71v79.046l25.651 11.334h120.67l25.303-26.897V320.04a8.177 8.177 0 00-1.673-4.956l-23.63-31.014z"/><path fill="#FEE97D" d="M495.951 314.118l4.845-5.863c-1.707-13.633-13.34-24.185-27.436-24.185h-72.97v116.09h100.63v-54.41l-5.069-2.577v-29.055zM163.65 284.07H75.51c-31.7 0-57.4 25.7-57.4 57.4v58.69h126.94l41.43-10.363V308.25l-22.83-24.18z"/><path fill="#B8DDFF" d="M224.26 226.85c-2.02 0-3.92.96-5.13 2.58l-40.71 54.64-26.24 33.21h82.349l25.754-33.214 42.631-57.216H224.26z"/><path fill="#FED402" d="M350.005 400.157v.003h50.385l25.303-26.897v-48.794c-41.734-.001-75.688 33.953-75.688 75.688z"/><g fill="#FEE45A"><path d="M501.021 392.823c-3.701-38.306-36.067-68.354-75.327-68.354a75.33 75.33 0 00-25.303 4.365v71.327h100.63v-7.338zm-314.54-3.026v-17.606c-11.148-27.928-38.453-47.723-70.312-47.723-41.734 0-75.688 33.954-75.688 75.688v.003h104.57l41.43-10.362z"/><path d="M279.72 284.07v116.09H145.05v-82.3c0-1.47.39-2.9 1.13-4.16l17.47-29.63h116.07z"/></g><path fill="#FEDF30" d="M145.05 330.208v69.952h46.808v-.003c0-31.511-19.361-58.575-46.808-69.949z"/><path fill="#D7D0D6" d="M509.2 389.31v17.78c0 3.82-3.1 6.92-6.93 6.92H18.11c-3.1 0-5.61-2.51-5.61-5.61V388c0-3.1 2.51-5.62 5.61-5.62h484.16c3.83 0 6.93 3.1 6.93 6.93z"/><g transform="translate(18 286)"><path fill="#B8B2B8" d="M22.48 114.157c0 4.733.458 9.358 1.293 13.853h148.792a75.756 75.756 0 001.293-13.853c0-6.123-.75-12.072-2.129-17.777H24.609a75.563 75.563 0 00-2.129 17.777z"/><circle cx="98.169" cy="114.157" r="50.689" fill="#736572"/><path fill="#615260" d="M98.169 114.157c0-18.759 10.212-35.134 25.358-43.899a50.474 50.474 0 00-25.358-6.789c-27.995 0-50.688 22.694-50.688 50.689s22.694 50.689 50.688 50.689a50.495 50.495 0 0025.363-6.792c-15.146-8.767-25.363-25.14-25.363-43.898z"/><path fill="#F9F7F8" d="M98.169 134.845c-11.407 0-20.688-9.281-20.688-20.688 0-11.407 9.281-20.688 20.688-20.688 11.408 0 20.689 9.281 20.689 20.688 0 11.407-9.281 20.688-20.689 20.688z"/><path fill="#B8B2B8" d="M332.005 114.157c0 4.733.458 9.358 1.293 13.853h148.791a75.756 75.756 0 001.293-13.853c0-6.123-.75-12.072-2.129-17.777h-147.12a75.562 75.562 0 00-2.128 17.777z"/><circle cx="407.693" cy="114.157" r="50.689" fill="#736572"/><path fill="#D7D0D6" d="M98.169 114.157a50.455 50.455 0 014.219-20.253 20.658 20.658 0 00-4.219-.435c-11.407 0-20.688 9.281-20.688 20.688 0 11.407 9.281 20.688 20.688 20.688 1.446 0 2.867-.151 4.23-.435a50.462 50.462 0 01-4.23-20.253z"/><path fill="#615260" d="M407.693 114.157c0-18.759 10.213-35.133 25.359-43.899a50.482 50.482 0 00-25.359-6.79c-27.995 0-50.688 22.694-50.688 50.689s22.694 50.689 50.688 50.689a50.498 50.498 0 0025.363-6.792c-15.147-8.766-25.363-25.139-25.363-43.897z"/><path fill="#F9F7F8" d="M407.693 134.845c-11.407 0-20.688-9.281-20.688-20.688 0-11.407 9.281-20.688 20.688-20.688 11.408 0 20.689 9.281 20.689 20.688 0 11.407-9.281 20.688-20.689 20.688z"/><path fill="#D7D0D6" d="M407.693 114.157c0-7.202 1.51-14.049 4.222-20.252a20.695 20.695 0 00-4.222-.436c-11.407 0-20.688 9.281-20.688 20.688 0 11.407 9.281 20.688 20.688 20.688 1.447 0 2.859-.152 4.224-.436a50.413 50.413 0 01-4.224-20.252z"/><path fill="#FEDF30" d="M42.63.03v32.56c0 10.27-8.33 18.6-18.61 18.6H.27C2.08 26.54 19.47 6.22 42.63.03z"/><path fill="#E94444" d="M483.02 25.72v34.03h-18.03c-4.75 0-8.61-3.86-8.61-8.61V30.86c0-4.75 3.86-8.61 8.61-8.61h17.81c.15 1.14.22 2.3.22 3.47z"/></g><g fill="#000"><path d="M116.169 371.968c-15.543 0-28.188 12.646-28.188 28.188 0 15.542 12.646 28.188 28.188 28.188 15.544 0 28.189-12.646 28.189-28.188 0-15.542-12.645-28.188-28.189-28.188zm0 41.377c-7.272 0-13.188-5.917-13.188-13.188 0-7.271 5.916-13.188 13.188-13.188s13.189 5.917 13.189 13.188c0 7.271-5.917 13.188-13.189 13.188zm309.523-41.377c-15.543 0-28.188 12.646-28.188 28.188 0 15.542 12.646 28.188 28.188 28.188 15.544 0 28.189-12.646 28.189-28.188 0-15.542-12.645-28.188-28.189-28.188zm0 41.377c-7.272 0-13.188-5.917-13.188-13.188 0-7.271 5.916-13.188 13.188-13.188s13.189 5.917 13.189 13.188c0 7.271-5.916 13.188-13.189 13.188z"/><path d="M508.518 376.323v-64.601c0-19.385-15.771-35.156-35.157-35.156h-19.986l-11.886-23.699a7.5 7.5 0 10-13.408 6.724l8.513 16.974h-16.781l-24.848-49.541a13.83 13.83 0 00-12.428-7.671H224.264a13.958 13.958 0 00-11.147 5.597l-38.458 51.615h-18.706l48.797-65.491a16.77 16.77 0 0113.389-6.721H390.07a16.609 16.609 0 0114.925 9.211l8.755 17.455a7.499 7.499 0 0010.066 3.341 7.5 7.5 0 003.342-10.067l-8.755-17.454c-5.409-10.786-16.266-17.486-28.333-17.486H218.137c-9.963 0-19.465 4.77-25.418 12.759l-55.473 74.453H75.515c-35.787 0-64.901 29.115-64.901 64.901v35.787C7.225 379.627 5 383.553 5 387.995V408.4c0 7.23 5.883 13.113 13.113 13.113h43.915c3.257 8.279 8.4 15.758 15.204 21.885 10.776 9.703 24.474 14.949 38.866 14.949 1.034 0 2.074-.027 3.115-.082 23.436-1.228 42.931-16.242 51.063-36.752h201.306c8.535 21.546 29.564 36.834 54.111 36.834 24.547 0 45.576-15.288 54.111-36.834h22.47c7.955 0 14.427-6.472 14.427-14.426v-17.778c0-5.717-3.35-10.653-8.183-12.986zm-15-38.075h-10.524a1.113 1.113 0 01-1.111-1.111v-20.274c0-.613.499-1.112 1.111-1.112h10.524v22.497zm-3.271-37.498h-7.254c-8.884 0-16.111 7.228-16.111 16.112v20.274c0 8.884 7.228 16.111 16.111 16.111h10.524v21.634h-15.418c-9.424-19.461-29.373-32.914-52.406-32.914-6.208 0-12.188.987-17.802 2.796v-53.199h65.469c7.069.001 13.288 3.666 16.887 9.186zm-87.216-24.185h-24.769v-42.211h3.598l21.171 42.211zm-115.812 0v-42.211h76.044v42.211h-76.044zm-62.404-42.211h47.403v42.211h-78.855l31.452-42.211zm-56.218 140.528a58.09 58.09 0 00-16.049-20.169v-36.858c0-.123.033-.243.095-.348l15.293-25.941h104.283v83.316H168.597zM53.126 296.891v21.696c0 6.124-4.981 11.105-11.104 11.105H27.029c3.487-14.354 13.193-26.294 26.097-32.801zM20 406.513v-16.631h38.888a58.482 58.482 0 00-.828 13.319c.058 1.112.156 2.215.275 3.313H20v-.001zm98.429 36.773c-11.501.606-22.585-3.315-31.158-11.035-8.573-7.719-13.627-18.315-14.23-29.835a43.12 43.12 0 0124.331-41.154 7.499 7.499 0 003.483-10.018 7.5 7.5 0 00-10.019-3.484 58.116 58.116 0 00-27.106 27.139c-.111-.005-.22-.017-.332-.017H25.613v-30.19h16.408c14.395 0 26.104-11.71 26.104-26.105v-26.471c2.412-.36 4.878-.55 7.389-.55h75.008l-10.802 18.325a15.694 15.694 0 00-2.173 7.965v28.175a58.397 58.397 0 00-10.25-2.991 7.498 7.498 0 00-8.792 5.933 7.499 7.499 0 005.933 8.792c19.485 3.783 33.821 20.287 34.86 40.134 1.247 23.78-17.088 44.142-40.869 45.387zm55.575-36.772c.336-3.076.441-6.215.274-9.402a58.727 58.727 0 00-.832-7.23h142.428a7.5 7.5 0 007.5-7.5 7.5 7.5 0 00-7.5-7.5h-28.656v-83.316h105.673v60.561a58.59 58.59 0 00-19.604 22.756h-25.45a7.5 7.5 0 00-7.5 7.5 7.5 7.5 0 007.5 7.5h20.594a58.199 58.199 0 00-.927 10.275c0 2.149.126 4.268.354 6.356H174.004zm251.689 36.831c-23.814 0-43.188-19.374-43.188-43.188 0-23.814 19.374-43.188 43.188-43.188 23.814 0 43.188 19.374 43.188 43.188 0 23.814-19.373 43.188-43.188 43.188zm76.008-36.832h-18.173c.228-2.089.354-4.208.354-6.356 0-3.507-.329-6.937-.927-10.275h18.746v16.631z"/><path d="M246.569 309.779h-5.387a7.5 7.5 0 00-7.5 7.5 7.5 7.5 0 007.5 7.5h5.387a7.5 7.5 0 007.5-7.5 7.5 7.5 0 00-7.5-7.5z"/></g></g></svg>