<svg xmlns="http://www.w3.org/2000/svg" width="15" height="15"><path fill="#333" d="M11.555 14.29c.314 0 .581-.11.801-.33l1.603-1.604c.22-.22.33-.487.33-.8 0-.315-.11-.582-.33-.802l-3.465-3.465 3.465-3.465c.22-.22.33-.487.33-.8 0-.315-.11-.582-.33-.802L12.356.619c-.22-.22-.487-.33-.8-.33-.315 0-.582.11-.802.33L7.289 4.084 3.824.619c-.22-.22-.487-.33-.8-.33-.315 0-.582.11-.802.33L.619 2.222c-.22.22-.33.487-.33.801 0 .314.11.581.33.801L4.084 7.29.619 10.754c-.22.22-.33.487-.33.801 0 .314.11.581.33.801l1.603 1.603c.22.22.487.33.801.33.314 0 .581-.11.801-.33l3.465-3.465 3.465 3.465c.22.22.487.33.801.33z"/></svg>