<svg height="512pt" viewBox="0 -14 512 512" width="512pt" xmlns="http://www.w3.org/2000/svg"><g fill-rule="evenodd"><path d="M431.988 339.781c-7.02-29.851-30.39-43.847-59.71-49.011-6.739-1.188-13.758-1.922-20.973-2.258-5.328-.168-9.754-1.27-13.504-3.051-21.063 39.93-117.336 37.11-133.406 0v-.281c-3.891 1.949-8.516 3.16-14.098 3.332-7.02.34-13.84 1.015-20.383 2.144-28.5 4.883-51.45 18.031-59.457 45.824 12.379 11.883 112.855 102.489 113.645 107.457h210.96v-50.792c0-5.418 2.454-10.301 6.317-13.575zm0 0" fill="#64b0d9"/><path d="M190.297 288.512c-7.02.336-13.84 1.015-20.383 2.144v45.824l15.309 13.743 19.172-13.743v-51.3c-3.891 1.949-8.516 3.16-14.098 3.332zm0 0M168.45 431.434h41.046c7.36 0 13.504 5.445 14.606 12.504h175.55l-13.445-77.856c-1.27-7.562-6.262-13.969-13.93-13.969V290.77c-6.738-1.188-13.757-1.922-20.972-2.258-5.328-.168-9.754-1.27-13.504-3.051v66.652H232.39c.222 1.696-51.649 74.27-63.942 79.32zm0 0" fill="#e6e6e6"/><path d="M321.309 267.684l-48.012-15.153-52.86 14.871-.14.254c-3.527 7.48-8.516 13.801-15.902 17.524v.28c16.07 37.11 112.347 39.93 133.406 0-7.727-3.667-12.633-10.269-16.492-17.776zm0 0" fill="#fcc368"/><path d="M328.523 123.152c-38.226-5.672-76.683-5.785-115.363 0-11.164 1.664-22.324 3.836-33.52 6.489v73.566c0 26.043 18.973 49.043 40.798 64.195 17.816 12.414 37.55 19.555 50.265 18.88 16.07-.907 34.508-7.622 50.606-18.598 22.89-15.633 41.046-39.899 41.046-68.403v-69.668c-11.25-2.625-22.527-4.797-33.832-6.46zm0 0" fill="#ffdda6"/><path d="M273.379 7.57c-17.617.055-36.168 9.086-45.387 27.059h-24.754c-35.777 0-57.09 39.34-23.597 60.191v54.715a416.028 416.028 0 0133.52-6.492c38.679-5.781 77.136-5.672 115.362 0a416.497 416.497 0 0133.832 6.492V94.82c33.493-20.851 13.11-60.191-22.668-60.191h-26.613C307.86 16.656 291.312 7.625 273.72 7.57zm0 0" fill="#e6e6e6"/><path d="M362.355 94.82c33.493-20.851 13.11-60.187-22.667-60.187H318.8c32.082 0 51.898 28.695 31.433 50.285-6.57 6.91-8.656 3.328-8.656 13.008l-.086 47.265a413.851 413.851 0 0120.863 4.344zm0 0" fill="#c2c7cc"/><path d="M362.355 186.137c-1.183-.227-11.785-2.258-20.863-9.485v18.29c0 28.5-18.183 52.792-41.074 68.398-16.098 11.008-34.535 17.695-50.605 18.597-.567.028-1.13.055-1.72.055 8.512 3.078 16.407 4.63 22.61 4.29 16.067-.903 34.508-7.618 50.606-18.594 22.89-15.633 41.046-39.903 41.046-68.403zm0 0" fill="#fcc368"/><path d="M337.8 285.46c-7.726-3.667-12.632-10.269-16.491-17.772-9.473 6.46-19.793 11.457-29.914 14.644 4.652 9 8.488 13.121 21.933 19.496a28.984 28.984 0 005.215 1.895c8.46-4.547 15.227-10.641 19.258-18.262zm0 0" fill="#eda93b"/><path d="M431.988 339.781c-7.02-29.851-30.39-43.847-59.71-49.011-6.739-1.188-13.758-1.922-20.973-2.258-5.328-.168-9.754-1.27-13.504-3.051-4.031 7.621-10.801 13.715-19.258 18.258 2.512.68 5.246 1.074 8.289 1.156 3.723.2 7.36.453 10.969.848 3.41.367 6.734.82 10.008 1.414 8.765 1.55 17.027 3.89 24.468 7.195 17.395 7.785 30.336 20.91 35.27 41.848 7.101 30.164 9.808 56.8 9.808 87.758h17.707v-50.793c0-5.418 2.454-10.301 6.317-13.575zm0 0" fill="#4a83c9"/><path d="M372.277 290.77c-6.738-1.188-13.757-1.922-20.972-2.258-5.328-.168-9.754-1.27-13.504-3.051v20.262c3.41.367 6.734.82 10.008 1.414 8.765 1.55 17.027 3.89 24.468 7.195zm0 0" fill="#c2c7cc"/><path d="M498.215 406.969c0-17.383-14.211-31.602-31.578-31.602h-13.813a17.671 17.671 0 00-11.445 4.203c-3.863 3.274-6.316 8.157-6.316 13.575v57.14c0 9.793 8.007 17.809 17.761 17.809h13.813c17.367 0 31.578-14.223 31.578-31.606zm0 0" fill="#ffdda6"/><path d="M482.68 145.05h-32.082c-11.985 0-21.766 9.817-21.766 21.782v65.805c0 11.992 9.781 21.785 21.766 21.785h32.082c6.734 0 12.77-3.106 16.773-7.957 3.102-3.781 4.988-8.578 4.988-13.828v-65.805c0-5.219-1.886-10.047-4.988-13.8-4.004-4.852-10.035-7.981-16.773-7.981zm0 0" fill="#e6e6e6"/><path d="M386.203 366.082c-1.265-7.562-6.258-13.969-13.926-13.969h-20.074l16.438 91.824h31.011zm0 0" fill="#c2c7cc"/><path d="M498.215 406.969c0-17.383-14.211-31.602-31.578-31.602h-13.813c-1.832 0-3.61.281-5.3.817 13.956 3.246 24.445 15.859 24.445 30.785v29.515c0 14.93-10.489 27.516-24.446 30.79 1.692.507 3.47.816 5.301.816h13.813c17.367 0 31.578-14.223 31.578-31.606zm0 0M288.07 352.113c-1.156-8.777-8.742-15.633-17.847-15.633h-30.278c-10.629 0-12.433 10.016-14.715 20.317-1.156 5.137 22.043 10.922 20.211 15.719h24.782c9.925 0 18.015-8.098 18.015-18.004 0-.817-.058-1.61-.168-2.399zm0 0M55.82 336.48H25.543c-9.895 0-17.988 8.13-17.988 18.032 0 9.906 8.093 18.004 17.988 18.004h24.723l23.484-22.293zm0 0" fill="#fcc368"/><path d="M204.395 336.48H55.82c-10.625 0-12.261 10.782-9.976 21.106a112.345 112.345 0 004.426 14.93c10.484 27.906 31.46 48.507 57.96 58.918l34.31 21.445 45.812-21.445c26.191-10.809 46.855-32.25 57.09-58.918a105.179 105.179 0 004.484-14.93c2.285-10.324.676-21.106-9.98-21.106zm0 0" fill="#f78411"/><path d="M188.352 431.434H72.004c-8.149 0-14.774 6.66-14.774 14.789v15.433c0 8.125 6.625 14.785 14.774 14.785h157.398c8.118 0 14.774-6.66 14.774-14.785v-15.433c0-.766-.059-1.555-.2-2.29-1.097-7.054-7.246-12.5-14.574-12.5zm0 0" fill="gray"/><path d="M239.945 336.48h-30.812c10.625 0 12.262 10.782 9.976 21.106-1.156 5.137-2.648 10.133-4.507 14.93a104.292 104.292 0 01-6.965 14.672 105.611 105.611 0 01-17.59 22.746c-.453.421-.902.875-1.356 1.296-9.02 8.52-19.562 15.407-31.18 20.204h30.844a100.983 100.983 0 0015.79-8.211c18.632-11.88 33.207-29.657 41.3-50.707a104.661 104.661 0 004.48-14.93c.427-1.832.708-3.668.821-5.473.617-8.324-2.035-15.633-10.8-15.633zm0 0" fill="#f74311"/><path d="M243.977 443.938c-1.098-7.06-7.247-12.504-14.575-12.504H198.56c7.359 0 13.476 5.445 14.605 12.503.113.731.168 1.524.168 2.286v15.433c0 8.13-6.652 14.785-14.773 14.785h30.843c8.118 0 14.774-6.66 14.774-14.785v-15.433a12.65 12.65 0 00-.2-2.285zm0 0" fill="#666"/><path d="M499.453 153.035c-4.004-4.855-10.035-7.984-16.773-7.984h-29.52c11.953 0 21.766 9.816 21.766 21.781v65.805c0 11.992-9.813 21.785-21.766 21.785h29.52c6.738 0 12.77-3.106 16.773-7.957 3.102-3.781 4.988-8.578 4.988-13.828v-65.805c0-5.219-1.886-10.043-4.988-13.797zm0 0" fill="#c2c7cc"/><path d="M362.355 149.535a414.8 414.8 0 00-33.832-6.488c-3.972 35.836 31.575 42.691 33.832 43.09zm0 0M213.16 143.047a414.628 414.628 0 00-33.52 6.488v36.543c4.88-.96 37.301-8.805 33.52-43.031zm0 0" fill="gray"/><path d="M362.355 149.535a413.851 413.851 0 00-20.863-4.344v31.461c9.078 7.223 19.68 9.258 20.863 9.48zm0 0" fill="#666"/></g><path d="M72.34 274.18a7.558 7.558 0 0010.55 10.824c15.106-14.723 8.919-26.84 4.82-34.86-3.847-7.523-5.437-10.64 2.669-18.269 3.035-2.86 3.183-7.645.32-10.68a7.552 7.552 0 00-10.68-.324c-16.37 15.406-9.992 27.89-5.769 36.152 3.691 7.223 5.219 10.211-1.91 17.157zm0 0M114.176 233.66a7.558 7.558 0 0010.55 10.824c15.114-14.73 8.91-26.847 4.805-34.863-3.851-7.523-5.445-10.64 2.656-18.266a7.555 7.555 0 00.325-10.68 7.556 7.556 0 00-10.684-.323c-16.371 15.41-9.98 27.894-5.75 36.156 3.695 7.219 5.223 10.207-1.902 17.152zm0 0M225.223 190.828c1.957 0 3.91-.758 5.39-2.27 2.461-2.183 13.465-2.16 15.895.024 2.945 2.961 7.73 2.977 10.687.035a7.557 7.557 0 00.035-10.687c-5.464-5.504-14.804-6.125-18.73-6.125h-.152c-3.774.015-13.13.648-18.524 6.168-2.918 2.984-2.875 7.78.114 10.699a7.537 7.537 0 005.285 2.156zm0 0M286.43 190.828c1.957 0 3.91-.758 5.386-2.27 2.461-2.183 13.47-2.16 15.899.024a7.557 7.557 0 0010.722-10.652c-5.468-5.504-14.804-6.125-18.73-6.125h-.152c-3.774.015-13.13.648-18.524 6.168-2.918 2.984-2.875 7.78.11 10.695a7.533 7.533 0 005.289 2.16zm0 0M269.887 98.145a7.556 7.556 0 007.554-7.56V55.88a7.555 7.555 0 00-7.554-7.555 7.556 7.556 0 00-7.559 7.555v34.707a7.557 7.557 0 007.559 7.559zm0 0M218.574 64.012a7.556 7.556 0 00-7.554 7.558v34.68a7.555 7.555 0 007.554 7.555 7.556 7.556 0 007.559-7.555V71.57a7.557 7.557 0 00-7.559-7.558zm0 0M321.195 113.805a7.556 7.556 0 007.555-7.559v-34.68a7.555 7.555 0 00-7.555-7.554 7.556 7.556 0 00-7.558 7.554v34.68a7.557 7.557 0 007.558 7.559zm0 0"/><path d="M482.68 261.98c16.168 0 29.32-13.164 29.32-29.343v-65.805c0-16.176-13.152-29.34-29.32-29.34h-32.082c-16.168 0-29.32 13.164-29.32 29.34v65.805c0 16.18 13.152 29.343 29.32 29.343h8.484V367.81h-6.258c-2.164 0-4.265.273-6.27.785l-7.21-30.547c-8.38-35.52-37.88-54.727-87.684-57.086-.035-.004-.07-.004-.105-.004-4.012-.133-7.438-.855-10.465-2.293-.117-.055-.23-.117-.352-.168-3.605-1.789-6.648-4.633-9.449-8.746a117.35 117.35 0 004.746-3.824c21.848-18.653 33.875-42.317 33.875-66.64v-48.653a7.282 7.282 0 000-2.2V98.829c14.153-10.375 19.992-25.207 15.656-40.367-5.285-18.48-24.148-31.387-45.878-31.387H318.37C311.797 11.906 297.5 2.031 279.098.27c-22.313-2.133-44.028 8.515-55.496 26.804h-20.364c-22.043 0-41.183 13.098-46.547 31.852-4.285 14.996 1.45 29.652 15.395 39.898v104.383c0 25.48 15.523 45.527 28.547 57.852a130.667 130.667 0 009.855 8.425c-2.86 4.274-5.968 7.215-9.68 9.043a.117.117 0 01-.03.016c-3.094 1.52-6.602 2.277-10.731 2.414-.035 0-.07.004-.106.004-7.644.363-14.808 1.125-21.492 2.281-.027.004-.054.008-.082.016-32.89 5.707-54.137 21.012-63.36 45.668H25.544C11.457 328.926 0 340.402 0 354.512c0 14.093 11.457 25.562 25.543 25.562h19.64c7.555 17.567 19.243 32.528 34.169 43.805h-7.348c-12.313 0-22.328 10.023-22.328 22.344v15.433c0 12.32 10.015 22.344 22.328 22.344h44.262a7.555 7.555 0 007.554-7.555 7.556 7.556 0 00-7.554-7.558H72.004c-3.98 0-7.215-3.242-7.215-7.23v-15.434c0-3.989 3.238-7.23 7.215-7.23h157.394c3.473 0 6.38 2.468 7.067 5.75.023.25.062.495.113.741.027.243.04.489.04.739v15.433c0 3.989-3.24 7.23-7.22 7.23h-78.71a7.556 7.556 0 00-7.555 7.56 7.555 7.555 0 007.555 7.554h78.71c12.317 0 22.332-10.023 22.332-22.344v-10.164h175.805c.633 13.43 11.73 24.156 25.285 24.156h13.817c21.578 0 39.133-17.566 39.133-39.16v-29.52c0-19.003-13.602-34.886-31.579-38.417V261.98zm-58.047 79.54l8.445 35.793a25.224 25.224 0 00-5.57 15.832v43.234h-21.492l-12.356-71.547c-1.527-9.11-6.758-15.973-13.824-18.824v-45.942c25.016 6.407 39.762 20.102 44.797 41.454zm-59.91-44.274v47.313h-19.368v-49.024c1.786.278 3.66.457 5.641.524 4.817.23 9.383.632 13.727 1.187zM293.78 344.56c-3.89-9.18-12.984-15.633-23.558-15.633h-58.274v-23.031c14.414 10.52 35.324 15.218 53.649 15.921 1.601.063 3.234.094 4.89.094 19.942 0 43.52-4.578 59.754-16.672v39.32zm-36.476 14.66c1.242-5.621 1.406-10.774.53-15.184h12.388c5.765 0 10.457 4.7 10.457 10.477 0 5.761-4.692 10.445-10.457 10.445h-14.36a111.969 111.969 0 001.442-5.738zm97.492-203.64v20.366c-7.59-3.289-17.352-10.175-18.813-24.027a403.394 403.394 0 0118.813 3.66zm-149.106-3.653c-1.457 13.543-10.886 20.445-18.492 23.84v-20.203a396.163 396.163 0 0118.492-3.637zM187.2 203.207v-11.332c4.684-1.527 11.078-4.234 17.063-8.855 7.73-5.961 16.379-16.415 16.75-33.422a379.18 379.18 0 0134.039-2.953 7.557 7.557 0 007.246-7.856c-.172-4.172-3.711-7.398-7.86-7.246-13.894.566-27.906 1.902-41.917 3.98-.063.004-.125.004-.188.012-.27.031-.531.074-.793.13a412.026 412.026 0 00-24.344 4.429V94.82a7.548 7.548 0 00-3.562-6.414c-10.754-6.699-15.164-15.691-12.406-25.328 2.964-10.379 14.914-20.89 32.011-20.89h24.75a7.557 7.557 0 006.727-4.11c9.066-17.691 28.094-24.183 42.941-22.762 14.125 1.352 24.653 9.36 28.16 21.426a7.555 7.555 0 007.258 5.446h26.614c17.523 0 28.53 10.593 31.343 20.433 2.758 9.652-1.86 19.05-12.672 25.785a7.548 7.548 0 00-3.562 6.414v45.278a425.411 425.411 0 00-24.48-4.387 7.721 7.721 0 00-.962-.176c-.101-.012-.203-.012-.304-.02-12.73-1.863-25.457-3.144-38.086-3.796-4.149-.219-7.723 2.988-7.938 7.156s2.993 7.723 7.16 7.938c10.11.519 20.29 1.476 30.485 2.808.363 17.742 9.687 28.399 18.015 34.395 5.766 4.148 11.735 6.586 16.11 7.972v7.297c0 19.828-10.149 39.414-28.574 55.149-16.375 13.976-37.813 23.289-55.938 24.3-.441.024-.898.04-1.37.04-10.603-.004-27.696-6.169-43.798-17.297a8.017 8.017 0 00-.773-.536 118.312 118.312 0 01-13.32-10.859c-10.868-10.285-23.825-26.77-23.825-46.875zm81.719 90.68c.746 0 1.484-.024 2.203-.063 15.48-.863 32.328-6.488 47.649-15.582 2.226 3.274 4.976 6.535 8.437 9.356-12.336 14.293-38.48 19.98-61.027 19.117-23.434-.899-43.14-8.38-51.735-19.156 3.492-2.86 6.254-6.164 8.492-9.477 15.91 9.77 32.875 15.805 45.981 15.805zm-78.313 2.175a47.28 47.28 0 006.235-.628v33.492h-19.367v-31.758a176.32 176.32 0 0113.132-1.106zm-28.246 3.852v29.012h-40.867c7.305-14.406 20.824-24.016 40.867-29.012zM25.543 364.957c-5.75 0-10.43-4.684-10.43-10.445 0-5.778 4.68-10.477 10.43-10.477h12.394c-.878 4.41-.714 9.563.528 15.184v.011c.43 1.934.918 3.84 1.433 5.727zm84.148 58.922c-28.937-11.848-49.48-36.527-56.468-67.922-1.282-5.785-.68-9.895.418-11.266.16-.195.527-.652 2.18-.652H239.944c1.664 0 2.035.457 2.192.652 1.093 1.364 1.687 5.47.41 11.262-6.75 30.492-27.527 55.781-55.723 67.926zm139.75 12.5c-3.644-7.399-11.257-12.5-20.039-12.5h-13.035c14.801-11.41 26.567-26.48 34.137-43.809h19.719c12.336 0 22.656-8.77 25.05-20.402h77.004c5.043 0 6.344 6.879 6.48 7.7l11.923 69.01zm241.215-29.41v29.52c0 13.257-10.773 24.046-24.02 24.046h-13.812c-5.629 0-10.207-4.598-10.207-10.25v-57.14c0-3.122 1.406-5.915 3.613-7.79a10.135 10.135 0 016.59-2.434h13.817c13.246 0 24.02 10.79 24.02 24.048zm-54.27-174.332v-65.805c0-7.844 6.376-14.227 14.212-14.227h32.082c7.832 0 14.207 6.383 14.207 14.227v65.805c0 7.847-6.375 14.23-14.207 14.23h-32.082c-7.836 0-14.211-6.383-14.211-14.23zm0 0"/></svg>