<svg xmlns="http://www.w3.org/2000/svg" width="411" height="41"><g fill="none" fill-rule="evenodd"><path fill="#C7B500" fill-rule="nonzero" d="M2.846 26v-4.514h4.291v-1.528H2.846V16.52h4.58V15H1v11h1.846zm9.074 0V15h-1.861v11h1.861zM27 19.748V18.4h-7.5v1.347H27zm0 3.002v-1.34h-7.5v1.34H27zM66.025 15v-1.401h-4.231V5.006H60.16V15h5.865zm3.884.137c.579 0 1.053-.083 1.422-.25.37-.166.736-.48 1.1-.94h.055L72.808 15h1.148V9.907c0-.898-.245-1.556-.735-1.975-.49-.42-1.215-.63-2.177-.63-.433 0-.893.057-1.38.168a5.591 5.591 0 00-1.348.489l.52 1.148c.328-.155.67-.289 1.025-.403.356-.114.727-.17 1.115-.17.474 0 .823.119 1.049.358.225.24.338.6.338 1.084v.403l-1.305.04c-1.185.037-2.067.254-2.646.65-.579.397-.868.985-.868 1.764 0 .734.208 1.301.625 1.702.417.401.997.602 1.74.602zm.506-1.23c-.401 0-.702-.093-.902-.278-.2-.184-.301-.445-.301-.782 0-.465.172-.81.516-1.036.344-.226.894-.352 1.65-.38l.972-.04v.656c0 .588-.177 1.045-.53 1.37-.353.326-.822.49-1.405.49zM78.305 15v-3.767c0-.943.157-1.615.471-2.016.315-.401.812-.602 1.49-.602.511 0 .884.144 1.118.43.235.288.352.723.352 1.307V15h1.614v-4.929c0-1.845-.907-2.768-2.721-2.768-.51 0-.975.098-1.395.294-.419.196-.742.474-.97.834h-.082l-.226-.992h-1.258V15h1.607zm10.33.137c.993 0 1.747-.376 2.262-1.128h.076l.28.991h1.258V4.363h-1.614v2.755c0 .315.04.743.117 1.285h-.082c-.52-.733-1.276-1.1-2.27-1.1-.948 0-1.69.345-2.225 1.035-.535.69-.803 1.656-.803 2.895 0 1.235.264 2.195.793 2.878.528.684 1.264 1.026 2.208 1.026zm.43-1.3c-.592 0-1.036-.219-1.333-.659-.296-.44-.444-1.079-.444-1.917 0-.848.153-1.5.458-1.959.305-.458.74-.687 1.306-.687.66 0 1.146.2 1.456.602.31.4.465 1.078.465 2.03v.226c-.01.834-.164 1.436-.465 1.808-.301.371-.782.557-1.443.557zM57.366 35v-1.401h-4.231v-8.593H51.5V35h5.865zm3.884.137c.579 0 1.053-.083 1.422-.25.369-.166.736-.48 1.1-.94h.055L64.148 35h1.149v-5.093c0-.898-.245-1.556-.735-1.975-.49-.42-1.216-.63-2.177-.63-.433 0-.893.057-1.381.168a5.591 5.591 0 00-1.347.489l.52 1.148c.328-.155.67-.289 1.025-.403.356-.114.727-.17 1.114-.17.474 0 .824.119 1.05.358.225.24.338.6.338 1.084v.403l-1.306.04c-1.184.037-2.066.254-2.645.65-.579.397-.868.985-.868 1.764 0 .734.208 1.301.625 1.702.417.401.997.602 1.74.602zm.506-1.23c-.401 0-.702-.093-.902-.278-.201-.184-.301-.445-.301-.782 0-.465.172-.81.516-1.036.344-.226.894-.352 1.65-.38l.971-.04v.656c0 .588-.176 1.045-.53 1.37-.353.326-.82.49-1.404.49zM69.646 35v-3.767c0-.943.157-1.615.471-2.016.315-.401.811-.602 1.49-.602.51 0 .883.144 1.118.43.235.288.352.723.352 1.307V35h1.613v-4.929c0-1.845-.906-2.768-2.72-2.768-.51 0-.976.098-1.395.294-.42.196-.743.474-.97.834h-.083l-.225-.992h-1.258V35h1.607zm10.33.137c.993 0 1.747-.376 2.262-1.128h.075l.28.991h1.259V24.363h-1.614v2.755c0 .315.039.743.116 1.285h-.082c-.52-.733-1.276-1.1-2.27-1.1-.947 0-1.689.345-2.224 1.035-.536.69-.803 1.656-.803 2.895 0 1.235.264 2.195.793 2.878.528.684 1.264 1.026 2.208 1.026zm.43-1.3c-.592 0-1.037-.219-1.333-.659-.296-.44-.444-1.079-.444-1.917 0-.848.153-1.5.458-1.959.305-.458.74-.687 1.306-.687.66 0 1.146.2 1.456.602.31.4.464 1.078.464 2.03v.226c-.009.834-.164 1.436-.464 1.808-.301.371-.782.557-1.443.557zM87.074 39v-2.152c0-.537.083-.92.248-1.15.166-.231.425-.346.78-.346.265 0 .46.08.585.244.126.162.188.41.188.74V39h.922v-2.29c0-.46.083-.802.248-1.024.165-.223.426-.334.783-.334.266 0 .462.08.588.244.126.162.19.41.19.74V39h.917v-2.816c0-.534-.117-.931-.353-1.192-.236-.26-.611-.39-1.127-.39-.3 0-.565.06-.797.18-.232.119-.411.286-.539.5h-.062c-.217-.454-.657-.68-1.32-.68-.274 0-.525.056-.753.168-.228.112-.401.27-.521.476h-.047l-.129-.566h-.719V39h.918zm8.063.078c.331 0 .602-.047.813-.142.21-.096.42-.275.629-.538h.03l.185.602h.656v-2.91c0-.513-.14-.89-.42-1.13-.28-.239-.695-.358-1.244-.358-.248 0-.51.031-.79.095a3.195 3.195 0 00-.769.28l.297.656c.187-.089.383-.166.586-.23.203-.066.415-.098.637-.098.27 0 .47.068.6.205.128.136.193.343.193.619v.23l-.746.024c-.678.02-1.181.144-1.512.37-.33.227-.496.563-.496 1.009 0 .419.119.743.357.972.238.23.57.344.994.344zm.29-.703c-.23 0-.402-.053-.516-.158-.115-.106-.172-.255-.172-.447 0-.266.098-.463.295-.592.196-.13.51-.201.943-.217l.555-.024v.375c0 .336-.101.598-.303.784-.202.186-.47.279-.803.279zm4.07.625l1.063-1.617L101.626 39h1.04l-1.528-2.207 1.453-2.113h-1.04l-.991 1.511-.985-1.511h-1.047l1.45 2.113L98.458 39h1.04z"/><path stroke="#C7B500" stroke-linecap="square" stroke-width="2" d="M50 20h53"/><path fill="#C7B500" fill-rule="nonzero" d="M147.757 15.137c.642 0 1.24-.041 1.794-.123a10.643 10.643 0 001.733-.417V9.579h-3.678v1.401h2.072v2.578a7.92 7.92 0 01-1.696.198c-1.048 0-1.851-.318-2.41-.954-.558-.635-.837-1.564-.837-2.785 0-1.163.31-2.079.93-2.748.62-.67 1.463-1.005 2.53-1.005.81 0 1.622.187 2.433.56l.574-1.36a7.442 7.442 0 00-2.967-.602c-1.622 0-2.896.455-3.82 1.364-.926.91-1.389 2.168-1.389 3.777 0 1.631.41 2.895 1.23 3.79.821.896 1.988 1.344 3.5 1.344zm8.088 0c.579 0 1.052-.083 1.422-.25.369-.166.736-.48 1.1-.94h.055l.321 1.053h1.149V9.907c0-.898-.245-1.556-.735-1.975-.49-.42-1.216-.63-2.178-.63-.432 0-.893.057-1.38.168a5.591 5.591 0 00-1.347.489l.52 1.148c.328-.155.67-.289 1.025-.403.355-.114.727-.17 1.114-.17.474 0 .824.119 1.05.358.225.24.338.6.338 1.084v.403l-1.306.04c-1.185.037-2.067.254-2.645.65-.58.397-.869.985-.869 1.764 0 .734.209 1.301.626 1.702.417.401.997.602 1.74.602zm.506-1.23c-.401 0-.702-.093-.903-.278-.2-.184-.3-.445-.3-.782 0-.465.171-.81.516-1.036.344-.226.894-.352 1.65-.38l.971-.04v.656c0 .588-.176 1.045-.53 1.37-.353.326-.821.49-1.404.49zm8.245 1.23c1.002 0 1.772-.197 2.31-.592.538-.394.807-.96.807-1.698 0-.365-.068-.678-.205-.94a1.982 1.982 0 00-.63-.694c-.282-.2-.735-.422-1.36-.663-.742-.287-1.224-.513-1.445-.677-.221-.164-.332-.365-.332-.602 0-.483.424-.724 1.272-.724.556 0 1.242.168 2.057.506l.52-1.21a6.031 6.031 0 00-2.523-.54c-.897 0-1.607.179-2.129.536-.522.358-.783.86-.783 1.508 0 .537.154.975.462 1.312.307.337.896.675 1.767 1.012.446.173.795.328 1.046.465.25.136.43.269.54.396a.71.71 0 01.164.479c0 .597-.495.895-1.484.895-.765 0-1.592-.205-2.481-.615v1.388c.61.305 1.42.458 2.427.458zM139.456 35.137c.643 0 1.24-.041 1.794-.123a10.643 10.643 0 001.733-.417v-5.018h-3.677v1.401h2.071v2.578a7.92 7.92 0 01-1.695.198c-1.049 0-1.852-.318-2.41-.954-.558-.635-.837-1.564-.837-2.785 0-1.163.31-2.079.93-2.748.619-.67 1.462-1.005 2.529-1.005.81 0 1.622.187 2.433.56l.574-1.36a7.442 7.442 0 00-2.966-.602c-1.623 0-2.897.455-3.822 1.364-.925.91-1.387 2.168-1.387 3.777 0 1.631.41 2.895 1.23 3.79.82.896 1.987 1.344 3.5 1.344zm8.088 0c.579 0 1.053-.083 1.422-.25.369-.166.736-.48 1.1-.94h.055l.321 1.053h1.149v-5.093c0-.898-.245-1.556-.735-1.975-.49-.42-1.216-.63-2.177-.63-.433 0-.894.057-1.381.168a5.591 5.591 0 00-1.347.489l.52 1.148c.328-.155.67-.289 1.025-.403.356-.114.727-.17 1.114-.17.474 0 .824.119 1.05.358.225.24.338.6.338 1.084v.403l-1.306.04c-1.185.037-2.066.254-2.645.65-.579.397-.868.985-.868 1.764 0 .734.208 1.301.625 1.702.417.401.997.602 1.74.602zm.506-1.23c-.401 0-.702-.093-.903-.278-.2-.184-.3-.445-.3-.782 0-.465.172-.81.516-1.036.344-.226.894-.352 1.65-.38l.971-.04v.656c0 .588-.176 1.045-.53 1.37-.353.326-.82.49-1.404.49zm8.245 1.23c1.003 0 1.773-.197 2.31-.592.538-.394.807-.96.807-1.698 0-.365-.068-.678-.205-.94a1.982 1.982 0 00-.629-.694c-.282-.2-.736-.422-1.36-.663-.743-.287-1.225-.513-1.446-.677-.221-.164-.332-.365-.332-.602 0-.483.424-.724 1.272-.724.556 0 1.242.168 2.058.506l.52-1.21a6.031 6.031 0 00-2.523-.54c-.898 0-1.608.179-2.13.536-.522.358-.783.86-.783 1.508 0 .537.154.975.462 1.312.308.337.897.675 1.767 1.012.447.173.795.328 1.046.465.25.136.43.269.54.396a.71.71 0 01.164.479c0 .597-.494.895-1.483.895-.766 0-1.593-.205-2.482-.615v1.388c.61.305 1.42.458 2.427.458zm5.78 3.863v-2.152c0-.537.082-.92.247-1.15.166-.231.425-.346.78-.346.265 0 .46.08.585.244.125.162.188.41.188.74V39h.922v-2.29c0-.46.083-.802.248-1.024.165-.223.426-.334.783-.334.266 0 .462.08.588.244.126.162.19.41.19.74V39h.917v-2.816c0-.534-.117-.931-.353-1.192-.236-.26-.611-.39-1.127-.39-.3 0-.565.06-.797.18-.232.119-.411.286-.539.5h-.062c-.217-.454-.657-.68-1.32-.68-.274 0-.525.056-.753.168-.228.112-.401.27-.521.476h-.047l-.129-.566h-.719V39h.918zm8.062.078c.331 0 .602-.047.813-.142.21-.096.42-.275.629-.538h.03l.185.602h.656v-2.91c0-.513-.14-.89-.42-1.13-.28-.239-.695-.358-1.244-.358-.248 0-.51.031-.79.095a3.195 3.195 0 00-.769.28l.297.656c.187-.089.383-.166.586-.23.203-.066.415-.098.637-.098.27 0 .47.068.6.205.128.136.193.343.193.619v.23l-.746.024c-.678.02-1.181.144-1.512.37-.33.227-.496.563-.496 1.009 0 .419.119.743.357.972.238.23.57.344.994.344zm.29-.703c-.23 0-.402-.053-.516-.158-.115-.106-.172-.255-.172-.447 0-.266.098-.463.295-.592.196-.13.51-.201.943-.217l.555-.023v.375c0 .335-.101.597-.303.783-.202.186-.47.279-.803.279zm4.07.625l1.063-1.617L176.626 39h1.04l-1.528-2.207 1.453-2.113h-1.04l-.991 1.511-.985-1.511h-1.047l1.45 2.113-1.52 2.207h1.04z"/><path stroke="#C7B500" stroke-linecap="square" stroke-width="2" d="M133 20h45"/><path fill="#C7B500" fill-rule="nonzero" d="M118.733 25v-3.274H122V20.29h-3.267V17h-1.474v3.29H114v1.436h3.259V25zM193.733 25v-3.274H197V20.29h-3.267V17h-1.474v3.29H189v1.436h3.259V25z"/><g><path fill="#C7B500" fill-rule="nonzero" d="M220.87 15l1.654-5.934c.069-.227.154-.574.257-1.039.102-.464.176-.843.222-1.134.023.191.089.532.198 1.022.11.49.2.864.274 1.124L225.17 15h1.777l2.605-9.994h-1.655l-1.421 5.81c-.26 1.008-.424 1.837-.493 2.489-.177-1.08-.346-1.892-.505-2.434l-1.668-5.865h-1.62l-1.627 5.838c-.083.296-.174.683-.274 1.162-.1.478-.175.911-.226 1.299a25.171 25.171 0 00-.478-2.475l-1.429-5.824h-1.668l1.313 4.99L219.093 15h1.777zm11.978.137c.578 0 1.052-.083 1.422-.25.369-.166.736-.48 1.1-.94h.055l.321 1.053h1.149V9.907c0-.898-.245-1.556-.735-1.975-.49-.42-1.216-.63-2.178-.63-.433 0-.893.057-1.38.168a5.591 5.591 0 00-1.347.489l.52 1.148c.328-.155.67-.289 1.025-.403.355-.114.727-.17 1.114-.17.474 0 .824.119 1.05.358.225.24.338.6.338 1.084v.403l-1.306.04c-1.185.037-2.067.254-2.645.65-.58.397-.869.985-.869 1.764 0 .734.209 1.301.626 1.702.417.401.997.602 1.74.602zm.506-1.23c-.402 0-.702-.093-.903-.278-.2-.184-.3-.445-.3-.782 0-.465.171-.81.516-1.036.344-.226.894-.352 1.65-.38l.971-.04v.656c0 .588-.177 1.045-.53 1.37-.353.326-.821.49-1.404.49zm8.716 1.23c.301 0 .592-.026.872-.079.28-.052.51-.117.687-.195v-1.21a3.907 3.907 0 01-1.176.185c-.314 0-.568-.092-.762-.277-.194-.185-.29-.47-.29-.858V8.656h2.153V7.44H241.4V5.758h-.99l-.548 1.6-1.107.587v.711h1.032v4.074c0 1.605.761 2.407 2.283 2.407zm6.871 0c.515 0 .973-.039 1.374-.116.401-.078.798-.21 1.19-.397v-1.306a6.54 6.54 0 01-1.24.42 5.83 5.83 0 01-1.248.127c-.68 0-1.206-.197-1.58-.591-.373-.394-.571-.958-.594-1.692h5.038v-.868c0-1.062-.29-1.896-.868-2.502-.58-.606-1.367-.91-2.366-.91-1.075 0-1.92.354-2.536 1.06-.615.707-.923 1.677-.923 2.912 0 1.204.332 2.148.995 2.834.663.686 1.583 1.029 2.758 1.029zm1.36-4.717h-3.43c.058-.62.242-1.092.55-1.415.307-.324.716-.485 1.226-.485s.912.16 1.204.481c.291.322.442.795.45 1.419zm5.512 4.58v-3.951c0-.67.199-1.215.598-1.634.398-.42.92-.629 1.562-.629.246 0 .483.027.71.082l.158-1.497a3.867 3.867 0 00-.8-.068c-.465 0-.899.132-1.302.396-.404.265-.73.622-.981 1.073h-.082l-.212-1.333h-1.258V15h1.607zM211.776 35l1.655-5.934c.068-.227.153-.574.256-1.039.103-.465.177-.843.222-1.134.023.191.089.532.198 1.022.11.49.2.864.274 1.124L216.076 35h1.778l2.604-9.994h-1.654l-1.422 5.81c-.26 1.008-.424 1.837-.492 2.489-.178-1.08-.347-1.892-.506-2.434l-1.668-5.865h-1.62l-1.627 5.838c-.082.296-.173.683-.274 1.162-.1.478-.175.911-.225 1.299a25.171 25.171 0 00-.479-2.475l-1.429-5.824h-1.667l1.312 4.99L209.999 35h1.777zm11.978.137c.579 0 1.053-.083 1.422-.25.369-.166.736-.48 1.1-.94h.055l.321 1.053h1.149v-5.093c0-.898-.245-1.556-.735-1.975-.49-.42-1.216-.63-2.177-.63-.433 0-.894.057-1.381.168a5.591 5.591 0 00-1.347.489l.52 1.148c.328-.155.67-.289 1.025-.403.356-.114.727-.17 1.114-.17.474 0 .824.119 1.05.358.225.24.338.6.338 1.084v.403l-1.306.04c-1.185.037-2.066.254-2.645.65-.579.397-.868.985-.868 1.764 0 .734.208 1.301.625 1.702.417.401.997.602 1.74.602zm.506-1.23c-.401 0-.702-.093-.903-.278-.2-.184-.3-.445-.3-.782 0-.465.172-.81.516-1.036.344-.226.894-.352 1.65-.38l.971-.04v.656c0 .588-.176 1.045-.53 1.37-.353.326-.82.49-1.404.49zm8.717 1.23c.3 0 .59-.026.871-.079.28-.052.51-.117.687-.195v-1.21a3.907 3.907 0 01-1.176.185c-.314 0-.568-.092-.762-.277-.194-.185-.29-.47-.29-.858v-4.047h2.153V27.44h-2.153v-1.681h-.992l-.546 1.6-1.108.587v.711h1.032v4.074c0 1.605.761 2.407 2.284 2.407zm6.87 0c.516 0 .974-.039 1.375-.116.4-.078.797-.21 1.19-.397v-1.306a6.54 6.54 0 01-1.242.42 5.83 5.83 0 01-1.247.127c-.68 0-1.206-.197-1.58-.591-.373-.394-.571-.958-.594-1.692h5.038v-.868c0-1.062-.29-1.896-.868-2.502-.579-.606-1.367-.91-2.365-.91-1.076 0-1.921.354-2.536 1.06-.616.707-.923 1.677-.923 2.912 0 1.204.331 2.148.994 2.834.663.686 1.583 1.029 2.759 1.029zm1.361-4.717h-3.432c.06-.62.243-1.092.55-1.415.308-.324.717-.485 1.228-.485.51 0 .911.16 1.203.481.292.322.442.795.451 1.419zm5.51 4.58v-3.951c0-.67.2-1.215.599-1.634.399-.42.92-.629 1.562-.629.246 0 .483.027.71.082l.158-1.497a3.867 3.867 0 00-.8-.068c-.465 0-.899.132-1.302.396-.403.265-.73.622-.98 1.073h-.083l-.212-1.333h-1.258V35h1.607zm5.356 4v-2.152c0-.537.083-.92.248-1.15.166-.231.425-.346.78-.346.265 0 .46.08.585.244.125.162.188.41.188.74V39h.922v-2.29c0-.46.083-.802.248-1.024.165-.223.426-.334.783-.334.266 0 .462.08.588.244.126.162.19.41.19.74V39h.917v-2.816c0-.534-.117-.931-.353-1.192-.236-.26-.611-.39-1.127-.39-.3 0-.565.06-.797.18-.232.119-.411.286-.539.5h-.062c-.217-.454-.657-.68-1.32-.68-.274 0-.525.056-.753.168-.228.112-.401.27-.521.476h-.047l-.129-.566h-.719V39h.918zm8.063.078c.331 0 .602-.047.813-.142.21-.096.42-.275.629-.538h.03l.185.602h.656v-2.91c0-.513-.14-.89-.42-1.13-.28-.239-.695-.358-1.244-.358-.248 0-.51.031-.79.095a3.195 3.195 0 00-.769.28l.297.656c.187-.089.383-.166.586-.23.203-.066.415-.098.637-.098.27 0 .47.068.6.205.128.136.193.343.193.619v.23l-.746.024c-.678.02-1.181.144-1.512.37-.33.227-.496.563-.496 1.009 0 .419.119.743.357.972.238.23.57.344.994.344zm.29-.703c-.23 0-.402-.053-.516-.158-.115-.106-.172-.255-.172-.447 0-.266.098-.463.295-.592.196-.13.51-.201.943-.217l.555-.023v.375c0 .335-.101.597-.303.783-.202.186-.47.279-.803.279zm4.07.625l1.063-1.617L266.626 39h1.04l-1.528-2.207 1.453-2.113h-1.04l-.991 1.511-.985-1.511h-1.047l1.45 2.113-1.52 2.207h1.04z"/><path stroke="#C7B500" stroke-linecap="square" stroke-width="2" d="M208 20h60"/></g><g><path fill="#C7B500" fill-rule="nonzero" d="M313.467 15v-1.388h-4.02v-3.137h3.767V9.107h-3.766v-2.72h4.02V5.006h-5.654V15h5.653zm5.149.137c.528 0 .999-.1 1.411-.301.413-.2.73-.476.954-.827h.082l.226.991h1.264V7.44h-1.613v3.766c0 .948-.158 1.624-.475 2.027-.317.403-.812.605-1.487.605-.506 0-.877-.145-1.114-.434-.237-.29-.356-.724-.356-1.302V7.439h-1.62v4.943c0 .925.226 1.615.677 2.071.451.456 1.135.684 2.05.684zm9.16 0c.302 0 .592-.026.872-.079.28-.052.51-.117.687-.195v-1.21a3.907 3.907 0 01-1.175.185c-.315 0-.569-.092-.763-.277-.193-.185-.29-.47-.29-.858V8.656h2.153V7.44h-2.153V5.758h-.991l-.547 1.6-1.108.587v.711h1.033v4.074c0 1.605.76 2.407 2.283 2.407zm5.177-.137v-3.951c0-.67.199-1.215.598-1.634.399-.42.92-.629 1.562-.629.246 0 .483.027.71.082l.158-1.497a3.867 3.867 0 00-.8-.068c-.465 0-.899.132-1.302.396-.403.265-.73.622-.981 1.073h-.082l-.212-1.333h-1.258V15h1.607zm7.76.137c1.13 0 2.011-.347 2.645-1.04.633-.692.95-1.656.95-2.89 0-1.195-.319-2.144-.957-2.848-.638-.704-1.504-1.056-2.598-1.056-1.143 0-2.03.344-2.659 1.032-.629.688-.943 1.645-.943 2.871 0 .788.146 1.481.437 2.078a3.16 3.16 0 001.251 1.374c.543.32 1.167.479 1.873.479zm.027-1.313c-1.29 0-1.935-.873-1.935-2.618 0-.834.152-1.474.455-1.92.303-.447.792-.67 1.466-.67 1.285 0 1.928.863 1.928 2.59 0 1.745-.638 2.618-1.914 2.618zM304.462 35v-1.388h-4.02v-3.137h3.767v-1.368h-3.767v-2.72h4.02v-1.381h-5.653V35h5.653zm5.148.137c.529 0 1-.1 1.412-.301.412-.2.73-.476.954-.827h.082l.225.991h1.265v-7.56h-1.613v3.766c0 .948-.159 1.624-.476 2.027-.316.403-.812.605-1.486.605-.506 0-.878-.145-1.115-.434-.237-.29-.355-.724-.355-1.302v-4.663h-1.62v4.943c0 .925.225 1.615.677 2.071.45.456 1.134.684 2.05.684zm9.161 0c.301 0 .592-.026.872-.079.28-.052.51-.117.687-.195v-1.21a3.907 3.907 0 01-1.176.185c-.314 0-.568-.092-.762-.277-.194-.185-.29-.47-.29-.858v-4.047h2.153V27.44h-2.153v-1.681h-.992l-.547 1.6-1.107.587v.711h1.032v4.074c0 1.605.761 2.407 2.283 2.407zm5.176-.137v-3.951c0-.67.2-1.215.598-1.634.4-.42.92-.629 1.562-.629.247 0 .483.027.711.082l.158-1.497a3.867 3.867 0 00-.8-.068c-.465 0-.9.132-1.302.396-.404.265-.73.622-.981 1.073h-.082l-.212-1.333h-1.258V35h1.606zm7.76.137c1.13 0 2.012-.347 2.646-1.04.633-.692.95-1.656.95-2.89 0-1.195-.32-2.144-.957-2.848-.638-.704-1.504-1.056-2.598-1.056-1.144 0-2.03.344-2.66 1.032-.628.688-.942 1.645-.942 2.871 0 .788.145 1.481.437 2.078a3.16 3.16 0 001.251 1.374c.542.32 1.167.479 1.873.479zm.027-1.313c-1.29 0-1.934-.873-1.934-2.618 0-.834.151-1.474.454-1.92.303-.447.792-.67 1.467-.67 1.285 0 1.927.863 1.927 2.59 0 1.745-.638 2.618-1.914 2.618zm6.34 5.176v-2.152c0-.537.083-.92.248-1.15.166-.231.425-.346.78-.346.265 0 .46.08.586.244.125.162.187.41.187.74V39h.922v-2.29c0-.46.083-.802.248-1.024.165-.223.426-.334.783-.334.266 0 .462.08.588.244.126.162.19.41.19.74V39h.917v-2.816c0-.534-.117-.931-.353-1.192-.236-.26-.611-.39-1.127-.39-.3 0-.565.06-.797.18-.232.119-.411.286-.539.5h-.062c-.217-.454-.657-.68-1.32-.68-.274 0-.525.056-.753.168-.228.112-.401.27-.521.476h-.047l-.129-.566h-.719V39h.918zm8.063.078c.331 0 .602-.047.813-.142.21-.096.42-.275.629-.538h.03l.185.602h.656v-2.91c0-.513-.14-.89-.42-1.13-.28-.239-.695-.358-1.244-.358-.248 0-.51.031-.79.095a3.195 3.195 0 00-.769.28l.297.656c.187-.089.383-.166.586-.23.203-.066.415-.098.637-.098.27 0 .47.068.6.205.128.136.193.343.193.619v.23l-.746.024c-.678.02-1.181.144-1.512.37-.33.227-.496.563-.496 1.009 0 .419.119.743.357.972.238.23.57.344.994.344zm.29-.703c-.23 0-.402-.053-.516-.158-.115-.106-.172-.255-.172-.447 0-.266.098-.463.295-.592.196-.13.51-.201.943-.217l.555-.023v.375c0 .335-.101.597-.303.783-.202.186-.47.279-.803.279zm4.07.625l1.063-1.617L352.626 39h1.04l-1.528-2.207 1.453-2.113h-1.04l-.991 1.511-.985-1.511h-1.047l1.45 2.113-1.52 2.207h1.04z"/><path stroke="#C7B500" stroke-linecap="square" stroke-width="2" d="M298 20h56"/></g><path fill="#C7B500" fill-rule="nonzero" d="M283.733 25v-3.274H287V20.29h-3.267V17h-1.474v3.29H279v1.436h3.259V25zM43.961 38c-3.916-5.278-5.874-11.072-5.874-17.382 0-3.345.509-6.523 1.527-9.534C40.63 8.072 42.094 5.378 44 3h-2.184c-1.88 2.273-3.32 4.919-4.318 7.937-.999 3.018-1.498 6.258-1.498 9.72 0 3.41.496 6.597 1.488 9.563s2.435 5.559 4.328 7.78h2.145zm318.223 0c1.88-2.195 3.32-4.775 4.318-7.74.999-2.966 1.498-6.167 1.498-9.603s-.496-6.666-1.488-9.69c-.992-3.025-2.435-5.68-4.328-7.967H360c1.907 2.365 3.369 5.053 4.386 8.064 1.018 3.011 1.527 6.196 1.527 9.554 0 6.31-1.958 12.104-5.874 17.382h2.145zm17.31-16c.486 0 .858-.136 1.117-.408.26-.272.389-.641.389-1.107 0-.459-.128-.821-.384-1.087-.256-.265-.63-.398-1.121-.398-.485 0-.855.128-1.111.384-.256.255-.384.623-.384 1.101 0 .472.128.843.384 1.112.256.269.626.403 1.11.403zm20.514 4.84v-1.652H394.4v-.08l2.052-1.964c.922-.857 1.58-1.537 1.976-2.04.396-.503.69-.992.88-1.465.192-.474.288-.974.288-1.501 0-.958-.332-1.72-.994-2.288-.663-.567-1.544-.85-2.643-.85-.7 0-1.36.114-1.98.343-.619.23-1.257.618-1.914 1.166l1.026 1.238c.555-.432 1.044-.73 1.466-.895.423-.165.861-.247 1.314-.247.565 0 1.008.151 1.329.455.32.303.48.718.48 1.245 0 .384-.067.743-.201 1.078a4.61 4.61 0 01-.643 1.074c-.293.38-.89 1.026-1.79 1.936L392 25.42v1.421h8.008zm5.443.16c1.454 0 2.576-.35 3.365-1.05.79-.7 1.184-1.673 1.184-2.918 0-1.075-.347-1.924-1.042-2.547-.695-.623-1.638-.934-2.829-.934-.393 0-.725.021-.997.064-.273.042-.503.08-.691.112l.266-2.89h4.469v-1.67h-6.141l-.453 5.701.849.495c.28-.064.606-.12.977-.171.372-.05.684-.076.938-.076 1.799 0 2.699.697 2.699 2.092 0 .729-.224 1.282-.671 1.66-.447.378-1.1.567-1.956.567-.484 0-1.01-.066-1.575-.2a5.746 5.746 0 01-1.503-.566v1.7c.754.42 1.79.631 3.11.631z"/></g></svg>