<svg xmlns="http://www.w3.org/2000/svg" width="522" height="512"><g fill="none" transform="translate(5 5)"><path fill="#FF7BAC" d="M490.171 273.926l-20.972-6.717c-5.018-1.607-8.916-5.57-10.497-10.596-24.133-76.742-113.748-111.985-203.951-111.985-105.532 0-191.083 48.225-191.083 154.722 0 61.378 30.104 104.368 76.615 129.197a4.292 4.292 0 012.204 2.969l10.42 54.124a10.8 10.8 0 0010.61 8.791h35.187a10.8 10.8 0 0010.61-8.791l5.696-30.091c.42-2.22 2.489-3.716 4.733-3.455 11.349 1.318 23.049 1.979 35.007 1.979 15.983 0 31.946-1.18 47.532-3.536 2.29-.346 4.449 1.16 4.88 3.436l5.994 31.668a10.798 10.798 0 0010.61 8.79h35.187c5.189 0 9.645-3.691 10.61-8.79l10.823-57.305a4.287 4.287 0 012.245-3.004c27.621-14.361 50.472-34.118 65.046-59.306 1.942-3.357 5.013-5.914 8.707-7.097l33.788-10.823a20.689 20.689 0 0014.378-19.702v-34.776a20.688 20.688 0 00-14.379-19.702z"/><path fill="#E8679C" d="M501.914 283.556a20.73 20.73 0 00-3.348-4.474c-.028-.028-.053-.06-.082-.088a20.648 20.648 0 00-8.313-5.068l-15.547-4.98v18.289c0 22.721-14.477 42.917-35.995 50.215-9.785 3.134-18.245 9.334-24.444 17.528-7.59 10.034-16.61 19.05-26.776 27.053-11.984 9.434-20.068 22.934-22.378 38.009-1.647 10.75-2.924 25.201-3.737 33.329a12.225 12.225 0 01-12.164 11.012h-17.416a10.798 10.798 0 01-10.61-8.79l-5.994-34.649c-.431-2.276-2.589-3.782-4.879-3.436-15.585 2.355-39.497 3.536-55.48 3.536-11.958 0-33.593-.661-44.942-1.979-2.244-.261-4.313 1.235-4.734 3.456l-5.696 32.078a10.798 10.798 0 01-10.61 8.79h-17.304a10.798 10.798 0 01-10.61-8.79l-8.433-50.15a4.29 4.29 0 00-2.203-2.969c-42.265-22.562-80.911-66.086-85.803-118.811v.003a194.68 194.68 0 00-.309 3.91l-.005.078-.025.389c-.078 1.18-.146 2.367-.202 3.561-.023.496-.039.997-.057 1.495-.035.911-.071 1.821-.094 2.741a197.348 197.348 0 00-.057 4.506c0 7.672.47 15.057 1.384 22.155 1.12 8.696 2.912 16.957 5.315 24.793.131.428.268.853.403 1.279.334 1.054.681 2.104 1.04 3.149.143.417.285.835.431 1.25.988 2.79 2.058 5.522 3.206 8.197.122.284.243.568.367.851a132.575 132.575 0 001.751 3.844c.1.21.204.417.304.626a140.496 140.496 0 001.737 3.473c.102.197.202.396.305.593a130.227 130.227 0 002.451 4.444 131.128 131.128 0 007.175 11.123c.245.341.495.679.744 1.017.623.849 1.256 1.69 1.898 2.523.253.328.504.657.76.983a134.51 134.51 0 002.652 3.277l.025.03a137.07 137.07 0 002.767 3.184c.284.318.573.632.86.947.7.769 1.409 1.529 2.127 2.282.29.304.578.609.87.91a140.95 140.95 0 002.992 2.998l.007.007a139.153 139.153 0 003.453 3.234 146.284 146.284 0 007.251 6.147 152.317 152.317 0 007.696 5.72c1.319.918 2.655 1.818 4.009 2.701 1.219.794 2.456 1.57 3.702 2.335.358.22.72.437 1.081.654.942.568 1.889 1.128 2.841 1.678.377.218.753.437 1.133.652 1.282.727 2.572 1.444 3.88 2.143a4.4 4.4 0 01.792.542c.217.187.407.4.581.624.052.066.097.136.144.206.12.173.225.355.318.545.037.076.076.149.109.228a4.3 4.3 0 01.259.825l10.42 54.124a10.87 10.87 0 00.893 2.704 10.927 10.927 0 00.95 1.594c.181.251.372.493.572.727.227.265.47.514.721.755.079.076.163.147.245.221a10.459 10.459 0 001.456 1.105c.093.059.184.121.279.177.299.177.605.344.921.492l.014.006c.316.147.642.276.973.392.105.037.212.067.318.101a10.285 10.285 0 001.83.409c.113.015.225.034.339.045.361.037.725.062 1.094.062h35.192a10.757 10.757 0 006.159-1.93 10.81 10.81 0 003.116-3.337 10.785 10.785 0 001.335-3.524l5.696-30.091v-.001c.047-.25.122-.488.209-.718.026-.069.056-.133.086-.2.073-.165.154-.324.246-.477.036-.061.071-.122.11-.181.133-.198.276-.388.438-.559a4.303 4.303 0 011.595-1.046 4.16 4.16 0 01.615-.189c.114-.026.231-.042.348-.059.113-.015.224-.035.339-.041a4.16 4.16 0 01.747.016 282.296 282.296 0 007.143.731c1.91.174 3.826.336 5.754.473l.028.002a305.785 305.785 0 007.283.423c1.953.091 3.912.172 5.881.227a325.202 325.202 0 0020.897-.097 311.23 311.23 0 006.119-.286c.207-.012.414-.028.621-.04 1.851-.108 3.7-.227 5.546-.367l.129-.011c4.048-.308 8.083-.692 12.099-1.152l.037-.004c1.837-.211 3.669-.436 5.498-.677.884-.117 1.764-.249 2.645-.374.97-.137 1.942-.265 2.909-.412 1.96-.297 3.81.806 4.556 2.563.01.023.025.043.034.066.104.258.185.53.239.814l2.997 15.834 2.997 15.834a10.798 10.798 0 0010.61 8.79h35.192c.369 0 .733-.024 1.094-.061.114-.012.226-.03.339-.045a10.784 10.784 0 001.112-.206c.243-.059.481-.127.718-.203.106-.034.213-.064.317-.101.333-.117.66-.246.978-.394l.005-.002c.318-.148.625-.316.926-.494.095-.056.186-.118.279-.177a10.41 10.41 0 001.456-1.106c.081-.073.165-.144.244-.22.251-.241.494-.491.721-.755.089-.103.169-.215.254-.322.298-.375.579-.764.827-1.179a10.715 10.715 0 001.335-3.524l2.372-12.557 2.465-13.05 1.546-8.184 4.441-23.514.398-2.109 1.752-.868c.028.009.045.005.059-.003.013-.007.023-.017.036-.024.844-.439 1.669-.899 2.504-1.347.873-.47 1.756-.929 2.62-1.41.748-.417 1.478-.853 2.219-1.278.932-.535 1.872-1.06 2.791-1.607.757-.451 1.494-.922 2.242-1.381.882-.542 1.773-1.075 2.643-1.629.78-.497 1.539-1.015 2.309-1.522.817-.538 1.645-1.067 2.451-1.616.761-.519 1.5-1.059 2.251-1.588.792-.558 1.595-1.107 2.374-1.676.727-.531 1.432-1.082 2.148-1.623.781-.589 1.573-1.169 2.342-1.77.695-.544 1.368-1.108 2.052-1.661.765-.618 1.541-1.227 2.293-1.857.692-.58 1.359-1.18 2.039-1.77.72-.625 1.452-1.24 2.159-1.876.66-.594 1.294-1.207 1.942-1.811.702-.654 1.416-1.298 2.104-1.963.628-.608 1.231-1.236 1.848-1.853.681-.682 1.373-1.353 2.039-2.047.606-.631 1.186-1.283 1.78-1.924.649-.7 1.31-1.391 1.943-2.103.578-.65 1.129-1.32 1.694-1.979.621-.725 1.255-1.439 1.86-2.175.551-.669 1.073-1.359 1.611-2.039.591-.747 1.195-1.484 1.77-2.243.528-.697 1.028-1.415 1.543-2.122.554-.761 1.121-1.513 1.659-2.286.503-.723.976-1.466 1.464-2.199.519-.779 1.052-1.548 1.554-2.338.624-.981 1.194-1.998 1.818-2.978.37-.582.717-1.177 1.063-1.773 1.9-3.271 4.898-5.763 8.502-6.917l.122-.039h.001l17.238-5.521 16.551-5.301a20.688 20.688 0 0014.377-19.702v-34.783a20.622 20.622 0 00-2.637-10.072zM336.717 163.411c1.07-5.08 4.584-9.304 9.304-11.464 18.136-8.301 64.344-28.278 76.222-22.055 14.876 7.792 7.084 91.91-15.584 104.749-21.895 12.4-85.425 2.249-69.942-71.23z"/><circle cx="230.68" cy="101.818" r="94.25" fill="#FFB125"/><path fill="#FF7BAC" d="M415.936 139.637c-10.344 0-35.391 8.524-65.367 22.246-1.637.749-2.818 2.163-3.159 3.78-4.368 20.732-2.032 37.418 6.758 48.252a33.605 33.605 0 003.369 3.574c1.414 1.299 3.693.571 4.163-1.29 10.419-41.259 60.977-76.562 54.236-76.562z"/><path fill="#FF901D" d="M298.48 36.354L165.22 169.615c36.892 35.643 95.69 35.262 132.106-1.154s36.797-95.215 1.154-132.107z"/><path fill="#DD7219" d="M228.513 148.579c-16.288-.263-27.322-9.064-27.322-15.5 0-3.153 2.758-7.488 6.042-7.488 4.335 0 7.881 9.195 21.28 10.246v-30.869c-11.822-4.203-24.958-8.932-24.958-25.746 0-16.551 12.479-23.119 24.958-24.433V50.98c0-1.576 1.576-3.021 3.81-3.021 1.97 0 3.941 1.445 3.941 3.021v3.547c8.932.263 21.543 3.021 21.543 9.458 0 2.496-1.839 7.487-5.78 7.487-3.152 0-6.568-4.203-15.763-4.86v26.665c11.428 4.203 23.907 9.983 23.907 27.848 0 16.157-9.72 25.089-23.907 27.06v4.466c0 1.576-1.97 3.021-3.941 3.021-2.233 0-3.81-1.445-3.81-3.021v-4.072zm.789-57.798V66.875c-7.356.919-12.61 4.203-12.61 11.034-.001 7.487 5.647 10.245 12.61 12.872zm6.173 17.077v27.716c7.093-1.314 11.559-5.517 11.559-13.005.001-8.275-5.122-11.953-11.559-14.711z"/><path fill="#000" d="M429.954 273.063a7.451 7.451 0 00-14.902 0c0 5.217-4.244 9.461-9.461 9.461-5.216 0-9.461-4.244-9.461-9.461a7.451 7.451 0 00-14.902 0c0 13.434 10.93 24.363 24.363 24.363s24.363-10.93 24.363-24.363z"/><path fill="#000" d="M492.444 266.83l-20.972-6.718c-2.686-.861-4.803-3.005-5.662-5.736-4.42-14.053-11.09-27.246-19.825-39.214-3.981-5.455-8.408-10.664-13.244-15.623v.001c3.094-13.573 4.776-28.934 4.557-42.206-.312-18.985-4.106-30.12-11.598-34.044-4.035-2.116-16.315-8.544-82.782 21.882a24.184 24.184 0 00-4.405 2.623 289.039 289.039 0 00-13.669-3.318c-.555-.121-1.127-.228-1.686-.346a101.505 101.505 0 009.122-37.737 7.45 7.45 0 00-7.111-7.777c-4.101-.204-7.594 2.998-7.777 7.11-.971 21.691-9.969 42.1-25.335 57.467a86.266 86.266 0 01-31.388 20.05 216.081 216.081 0 00-59.976 0 86.257 86.257 0 01-31.388-20.05c-16.394-16.394-25.423-38.191-25.423-61.376 0-23.186 9.029-44.982 25.423-61.376 16.394-16.395 38.192-25.424 61.376-25.424 23.184 0 44.982 9.029 61.376 25.424a86.76 86.76 0 0116.181 22.343 7.45 7.45 0 0010.007 3.304 7.45 7.45 0 003.304-10.006c-4.863-9.659-11.24-18.466-18.953-26.18C283.387 10.694 257.847.115 230.682.115s-52.705 10.579-71.914 29.788c-19.209 19.21-29.788 44.749-29.788 71.914s10.579 52.705 29.788 71.914a101.645 101.645 0 0017.945 14.298l.006-.001a210.24 210.24 0 00-13.778 4.076 7.452 7.452 0 004.725 14.135c40.636-13.585 85.396-13.585 126.032 0a7.442 7.442 0 009.429-4.705 7.452 7.452 0 00-4.704-9.43 209.627 209.627 0 00-13.778-4.076l.006.001a101.609 101.609 0 0017.945-14.298 102.041 102.041 0 0012.986-15.944c2.054.399 4.093.817 6.102 1.253 2.676.581 5.34 1.205 7.98 1.86-.083.324-.168.647-.237.976-3.634 17.245-3.398 32.497.701 45.33 3.684 11.535 10.333 20.88 19.76 27.777 11.111 8.128 24.525 11.639 36.676 11.639 9.145 0 17.576-1.99 23.768-5.497 7.004-3.967 12.872-12.326 17.517-24.876a126.082 126.082 0 016.1 7.701c7.777 10.654 13.714 22.396 17.646 34.898 2.309 7.343 8.041 13.121 15.332 15.458l20.972 6.718a13.195 13.195 0 019.2 12.606v34.775a13.195 13.195 0 01-9.2 12.606l-33.789 10.823c-5.406 1.733-9.981 5.448-12.882 10.462-13.275 22.942-34.146 41.927-62.037 56.428a11.675 11.675 0 00-6.126 8.23l-10.822 57.303a3.35 3.35 0 01-3.289 2.724h-35.187a3.35 3.35 0 01-3.289-2.724l-5.994-31.669a11.708 11.708 0 00-13.314-9.417c-15.157 2.292-30.775 3.453-46.418 3.453-11.638 0-23.127-.649-34.15-1.93-6.095-.701-11.773 3.454-12.912 9.472l-5.696 30.091a3.35 3.35 0 01-3.289 2.724h-35.187a3.356 3.356 0 01-3.293-2.748l-10.42-54.122a11.697 11.697 0 00-6.012-8.135C96.25 396.594 71.12 354.191 71.12 299.351c0-27.708 6.062-52.209 18.017-72.825 11.156-19.239 27.45-35.146 48.429-47.281a7.453 7.453 0 002.719-10.182 7.454 7.454 0 00-10.181-2.719C89.425 189.875 64.89 226.18 58.135 272.289v-.001c-.717-.065-1.435-.127-2.15-.201.13-4.975-.77-9.995-2.73-14.867-4.323-10.746-13.203-18.502-22.624-19.759-7.424-.994-14.489 2.158-19.392 8.636-7.109 9.394-5.95 16.828-3.727 21.41 3.753 7.733 13.4 13.203 29.409 16.642a29.24 29.24 0 01-1.454 1.986c-9.459 11.863-20.603 14.486-27.839 14.733-4.236.144-7.628 3.545-7.628 7.784v.036c0 4.181 3.299 7.591 7.476 7.782.535.025 1.094.038 1.676.038 9.156 0 23.851-3.377 37.969-21.08 2.229-2.794 4.045-5.742 5.441-8.788 1.406.159 2.757.295 4.051.415l.001-.008a195.776 195.776 0 00-.395 12.304c0 31.028 7.397 58.693 21.984 82.23 13.45 21.7 32.707 39.468 57.255 52.83l10.13 52.616c1.629 8.608 9.17 14.857 17.931 14.857h35.187c8.761 0 16.302-6.249 17.931-14.857l5.15-27.208c10.696 1.133 21.77 1.707 32.965 1.707 15.36 0 30.702-1.07 45.654-3.182l5.429 28.685c1.63 8.608 9.171 14.855 17.931 14.855h35.187c8.761 0 16.302-6.248 17.932-14.859l10.537-55.791c29.768-15.741 52.206-36.419 66.704-61.475 1.045-1.806 2.654-3.131 4.53-3.732l33.788-10.823A28.055 28.055 0 00512 328.403v-34.775a28.05 28.05 0 00-19.556-26.798zm-71.166-88.557c-2.868 24.526-10.561 45.506-18.291 49.884-8.786 4.977-29.071 5.938-44.301-5.203-15.248-11.154-20.323-31.212-14.678-58.006v-.001c.567-2.691 2.479-5.019 5.114-6.225 37.304-17.076 58.811-22.661 66.801-22.661 1.206 0 2.104.127 2.702.361 2.4 2.557 5.548 17.099 2.653 41.851zM20.921 261.001c-.771-1.59 1.049-4.385 2.203-5.911 1.829-2.416 3.514-2.91 4.787-2.91.269 0 .52.022.75.053 3.426.457 8.226 4.227 10.769 10.548a22.624 22.624 0 011.559 7.027c-10.315-2.138-18.329-5.219-20.068-8.807z"/></g></svg>