<svg xmlns="http://www.w3.org/2000/svg" width="512" height="512"><g fill="none"><path fill="#D8D7DA" d="M376.137 124.383v90.86h-41.76v-90.86c0-24.748-20.136-44.894-44.894-44.894H24.752v-41.76h264.731c47.778 0 86.654 38.876 86.654 86.654z"/><path fill="#C6C5CA" d="M363.519 125.507v89.736h-24.102l-5.039-.77v-90.09c0-24.748-20.136-44.894-44.894-44.894H24.752V51.378H289.4c40.864 0 74.119 33.254 74.119 74.129z"/><path d="M230.65 404.24a7.809 7.809 0 00-7.809 7.809v48.934a7.809 7.809 0 1015.618 0v-48.934a7.809 7.809 0 00-7.809-7.809zm0 80.167a7.809 7.809 0 00-7.809 7.809v11.974a7.809 7.809 0 1015.618 0v-11.974a7.81 7.81 0 00-7.809-7.809z" fill="#00CCB3"/><path fill="#00EED1" d="M351.738 404.24a7.809 7.809 0 00-7.809 7.809v31.234a7.809 7.809 0 1015.618 0v-31.234a7.809 7.809 0 00-7.809-7.809z"/><path fill="#00CCB3" d="M351.738 465.148a7.809 7.809 0 00-7.809 7.809v31.234a7.809 7.809 0 1015.618 0v-31.234a7.81 7.81 0 00-7.809-7.809z"/><path fill="#00EED1" d="M392.102 484.407a7.809 7.809 0 00-7.809 7.809v11.974a7.809 7.809 0 007.809 7.809 7.808 7.808 0 007.809-7.809v-11.974a7.81 7.81 0 00-7.809-7.809z"/><path fill="#00CCB3" d="M392.102 404.24a7.809 7.809 0 00-7.809 7.809v48.934a7.809 7.809 0 007.809 7.809 7.808 7.808 0 007.809-7.809v-48.934a7.81 7.81 0 00-7.809-7.809z"/><path d="M432.464 404.24a7.809 7.809 0 00-7.809 7.809v31.234a7.809 7.809 0 1015.618 0v-31.234a7.809 7.809 0 00-7.809-7.809zm0 60.908a7.809 7.809 0 00-7.809 7.809v31.234a7.809 7.809 0 1015.618 0v-31.234a7.81 7.81 0 00-7.809-7.809zm40.363-60.908a7.809 7.809 0 00-7.809 7.809v48.934a7.809 7.809 0 1015.618 0v-48.934a7.81 7.81 0 00-7.809-7.809z" fill="#00EED1"/><path fill="#00CCB3" d="M472.827 484.407a7.809 7.809 0 00-7.809 7.809v11.974a7.809 7.809 0 1015.618 0v-11.974a7.81 7.81 0 00-7.809-7.809z"/><path d="M271.013 404.24a7.809 7.809 0 00-7.809 7.809v31.234a7.809 7.809 0 007.809 7.809 7.808 7.808 0 007.809-7.809v-31.234a7.808 7.808 0 00-7.809-7.809zm0 60.908a7.809 7.809 0 00-7.809 7.809v31.234a7.809 7.809 0 007.809 7.809 7.808 7.808 0 007.809-7.809v-31.234a7.809 7.809 0 00-7.809-7.809z" fill="#00EED1"/><path fill="#00CCB3" d="M311.376 404.24a7.809 7.809 0 00-7.809 7.809v48.934a7.809 7.809 0 007.809 7.809 7.808 7.808 0 007.809-7.809v-48.934a7.809 7.809 0 00-7.809-7.809z"/><path fill="#00EED1" d="M311.376 484.407a7.809 7.809 0 00-7.809 7.809v11.974a7.809 7.809 0 007.809 7.809 7.808 7.808 0 007.809-7.809v-11.974a7.81 7.81 0 00-7.809-7.809z"/><path fill="#ACABB1" d="M399.609 243.859v-2.156c0-22.804-18.658-41.462-41.462-41.462h-2.04c-22.804 0-41.462 18.658-41.462 41.462v2.156h84.964z"/><path fill="#D8D7DA" d="M491.215 352.924v6.809H223.037v-6.809c0-71.644 59.209-136.816 146.062-130.57 1.572.104 3.134.239 4.685.406 65.738 6.768 117.431 62.719 117.431 130.164z"/><path fill="#E0E0E2" d="M491.215 352.924v6.809H256.354v-6.809c0-67.445 51.693-123.396 117.43-130.163 65.738 6.767 117.431 62.718 117.431 130.163z"/><path fill="#C6C5CA" d="M511.236 359.618v.177c0 12.889-10.547 23.436-23.436 23.436H226.452c-12.889 0-23.436-10.547-23.436-23.436v-.177c.01-2.166.312-4.258.875-6.247 2.759-9.87 11.859-17.137 22.562-17.137H487.8c10.703 0 19.802 7.267 22.562 17.137a23.41 23.41 0 01.874 6.247z"/><path d="M511.236 359.618v.177c0 12.889-10.547 23.436-23.436 23.436H226.452c-12.889 0-23.436-10.547-23.436-23.436v-.177c.01-2.166.312-4.258.875-6.247h306.47a23.37 23.37 0 01.875 6.247zM36.954 35.23v41.042c0 11.307-5.258 21.437-13.441 28.09a35.746 35.746 0 01-4.831 3.321 35.41 35.41 0 01-8.662 3.571c-4.685 1.249-9.256-2.395-9.256-7.246V7.494c0-4.852 4.571-8.496 9.256-7.246a35.41 35.41 0 018.662 3.571 35.838 35.838 0 014.831 3.321c8.183 6.653 13.441 16.783 13.441 28.09z" fill="#ACABB1"/><path fill="#898890" d="M23.513 7.14v97.222a35.746 35.746 0 01-4.831 3.321 35.41 35.41 0 01-8.662 3.571c-4.685 1.249-9.256-2.395-9.256-7.246V7.494c0-4.852 4.571-8.496 9.256-7.246a35.41 35.41 0 018.662 3.571 35.746 35.746 0 014.831 3.321z"/></g></svg>