<svg xmlns="http://www.w3.org/2000/svg" width="50" height="34"><path d="M7.113 12.533H31.25a2.083 2.083 0 100-4.167H7.113l4.777-4.777A2.083 2.083 0 008.944.643L.61 8.976c-.048.049-.094.1-.138.153-.02.024-.037.05-.055.074-.022.03-.045.059-.066.09-.02.03-.037.06-.055.09-.017.028-.035.056-.05.084-.017.031-.03.063-.046.095-.014.03-.029.06-.041.09-.013.03-.023.062-.035.094-.011.033-.024.065-.034.099-.01.03-.017.063-.024.094-.01.034-.019.068-.026.103-.007.037-.011.074-.016.11l-.014.092a2.096 2.096 0 000 .411c.003.03.01.06.014.091l.016.11c.007.035.017.07.026.103.008.032.014.064.024.095.01.034.023.066.035.099.01.031.021.063.034.093.012.031.027.06.042.09.015.032.029.064.045.095.016.029.033.056.05.084.018.03.035.061.055.091.02.03.044.06.066.09.018.024.035.05.055.074.044.053.09.103.137.151l.001.001 8.334 8.334a2.083 2.083 0 002.946-2.947l-4.777-4.776zM49.528 24.27c.02-.024.037-.05.055-.075.023-.03.046-.058.066-.089.02-.03.037-.06.055-.091.017-.028.034-.055.05-.084.016-.03.03-.063.045-.095.015-.03.03-.059.042-.09.013-.03.023-.062.034-.093.012-.033.025-.065.035-.099.01-.031.016-.063.024-.095.009-.034.019-.068.025-.103.008-.036.012-.073.017-.11l.014-.091a2.096 2.096 0 000-.411c-.003-.031-.01-.06-.014-.091-.005-.037-.01-.074-.017-.11-.006-.036-.016-.07-.025-.104-.008-.031-.015-.063-.024-.094-.01-.034-.023-.066-.035-.1-.01-.03-.021-.062-.034-.093-.012-.03-.027-.06-.042-.09l-.045-.095-.05-.083c-.018-.03-.035-.062-.055-.091-.02-.031-.043-.06-.066-.09-.018-.024-.035-.05-.055-.074a2.087 2.087 0 00-.138-.153l-8.334-8.333a2.083 2.083 0 00-2.946 2.946l4.777 4.777H18.75a2.083 2.083 0 100 4.167h24.137L38.11 29.81a2.083 2.083 0 002.946 2.946l8.334-8.333.002-.003c.048-.048.093-.098.136-.15z" fill="#666"/></svg>