<svg xmlns="http://www.w3.org/2000/svg" width="488" height="480"><g fill="none"><path fill="#F5CBA1" d="M16 400v72h48V352c-26.512 0-48 21.488-48 48z"/><path fill="#46AFDA" d="M288 472H64V352l72-16h80l72 16z"/><path d="M336 400v72h-48V352c26.512 0 48 21.488 48 48zm-60-192c8.912 0 16.376-5.872 18.96-13.928.176-2.872.4-5.752.784-8.624C294.48 175.624 286.176 168 276 168h-12v40h12zM76 168c-11.048 0-20 8.952-20 20s8.952 20 20 20h12v-40H76z" fill="#F5CBA1"/><path fill="#4D2817" d="M274.432 26.256A36.233 36.233 0 00242.968 8a36.276 36.276 0 00-20.104 6.088L208 24a95.282 95.282 0 00-52.848-16H144a80.002 80.002 0 00-64 32 80.002 80.002 0 01-64 32H8l13.704 20.552C32.672 109.016 52.808 116.8 72 112v-8h200l1.632-2.728c13.816-23.016 14.12-51.704.8-75.016z"/><path fill="#F5CBA1" d="M88 168v48c0 48.6 39.4 88 88 88s88-39.4 88-88v-72H88v24z"/><circle cx="440" cy="400" r="40" fill="#C9F364"/><path fill="#FFF" d="M465.56 224.896c23.152-53.68 7.376-105.416-41.312-126.416-48.688-21-97.144 3.024-120.296 56.704s-.28 121.856 36.448 137.696c36.728 15.84 102.008-14.296 125.16-67.984zM256 448.16L292.728 464l38.024-88.152-29.384-12.672-7.344-3.168z"/><path fill="#ADD156" d="M440 424c-19.352 0-35.488-13.744-39.192-32a39.903 39.903 0 00-.808 8c0 22.088 17.912 40 40 40s40-17.912 40-40c0-2.744-.28-5.416-.808-8-3.704 18.256-19.84 32-39.192 32z"/><path fill="#1A326E" d="M72 104h208v40H72z"/><path fill="#F5CBA1" d="M176 304c-14.416 0-27.992-3.536-40-9.68V352s24 16 40 16c24 0 40-16 40-16v-57.68c-12.008 6.144-25.584 9.68-40 9.68z"/><path fill="#D9B48E" d="M136 294.32v24c12.008 6.144 25.584 9.68 40 9.68s27.992-3.536 40-9.68v-24c-12.008 6.144-25.584 9.68-40 9.68s-27.992-3.536-40-9.68zM88 144h176v16H88z"/><path fill="#3B1E12" d="M283.08 51.496c-2.56 15.112-16.088 25.928-31.408 26.272L152 80h-30.704c-16.752 0-33.4 2.704-49.296 8-17.952 4.488-36.632-2.136-47.96-16.472C21.376 71.8 18.704 72 16 72H8l13.704 20.552C32.672 109.016 52.808 116.8 72 112v-8h200l1.632-2.728c9.16-15.272 12.248-33.016 9.488-50.056-.016.096-.032.184-.04.28z"/><ellipse cx="244" cy="32" fill="#61321D" rx="20" ry="8"/><ellipse cx="260" cy="52" fill="#61321D" rx="12" ry="4"/><path fill="#000" d="M136 206c-7.72 0-14-6.28-14-14s6.28-14 14-14 14 6.28 14 14-6.28 14-14 14zm0-16a2 2 0 00-2 2c0 2.2 4 2.2 4 0a2 2 0 00-2-2zm80 16c-7.72 0-14-6.28-14-14s6.28-14 14-14 14 6.28 14 14-6.28 14-14 14zm0-16a2 2 0 00-2 2c0 2.2 4 2.2 4 0a2 2 0 00-2-2zm-40 72c-16.544 0-30-13.456-30-30h12c0 9.928 8.072 18 18 18s18-8.072 18-18h12c0 16.544-13.456 30-30 30z"/><path fill="#000" d="M60.712 121.392c1.096 0 2.192-.136 3.288-.2V144c0 4.416 3.584 8 8 8h8v8h-4c-15.44 0-28 12.56-28 28s12.56 28 28 28h4c0 35.44 19.352 66.376 48 83.008v30.576l-64.912 14.424C32.632 344.496 8 369.424 8 400v72c0 4.416 3.584 8 8 8h320c4.416 0 8-3.584 8-8v-72c0-8.192-1.904-16.256-5.344-23.632.208-3.248-1.528-6.416-4.664-7.808 10.424-23.048 27.048-42.496 48.312-56.296l37.056-24.048-.232-.352c23.992-14.32 43.376-35.696 53.776-59.792 25.12-58.232 6.416-114.536-45.488-136.928-51.896-22.368-105.688 2.664-130.816 60.888-1.848 4.28-3.344 8.632-4.664 13.016C287.408 161.88 281.928 160 276 160h-4v-8h8c4.416 0 8-3.584 8-8v-40c0-2.712-1.432-4.992-3.496-6.432 11.08-23.968 10.144-52.056-3.12-75.272C273.52 8.536 258.808 0 242.976 0a44.064 44.064 0 00-24.536 7.432l-10.56 7.04A102.958 102.958 0 00155.16 0H144c-27.552 0-53.864 13.16-70.4 35.2C60.072 53.232 38.544 64 16 64H8a8.003 8.003 0 00-7.056 4.224 7.984 7.984 0 00.4 8.208l13.704 20.552c10.304 15.464 27.616 24.408 45.664 24.408zM76 200c-6.616 0-12-5.384-12-12s5.384-12 12-12h4v24h-4zm20 16v-64h160v64c0 44.112-35.888 80-80 80s-80-35.888-80-80zm176 0h4c3.952 0 7.696-.84 11.112-2.328.552 6.504 1.504 12.888 2.92 19.064l-.296.08 10.848 41.832c6.008 23.168 5.416 47.696-1.328 70.56-3.392-.696-6.84-1.144-10.344-1.2L224 329.584v-30.576c28.648-16.632 48-47.568 48-83.008zm48.232 164.024l-31.68 73.456-22.04-9.504 31.68-73.456 22.04 9.504zM72 358.416l20.048-4.456c18.736 27.928 50.272 45.184 83.952 45.184s65.224-17.256 83.952-45.184l25.52 5.672-36.816 85.352a7.998 7.998 0 004.176 10.512L272.528 464H72V358.416zM176 312c11.232 0 21.976-2.04 32-5.6v42.144c-18.256 16.008-45.744 16.008-64 0V306.4c10.024 3.56 20.768 5.6 32 5.6zm-45.656 45.656c12.584 12.592 29.12 18.88 45.656 18.88 16.536 0 33.072-6.296 45.656-18.88A7.979 7.979 0 00224 352v-6.032l19.176 4.264c-16.064 20.536-40.912 32.912-67.176 32.912-26.264 0-51.112-12.376-67.176-32.912L128 345.968V352c0 2.12.84 4.16 2.344 5.656zM24 400c0-19.312 13.768-35.472 32-39.192V464H24v-64zm277.448 64L328 402.432V464h-26.552zm17.856-101.8l-7.736-3.336c8.32-22.648 10.96-47.112 7.752-70.984 5.536 5.296 11.528 9.592 17.904 12.344 7.504 3.24 16.12 4.832 25.36 4.832.768 0 1.592-.144 2.368-.168-19.8 14.952-35.408 34.576-45.648 57.312zm69.84-263.24c10.44 0 21.192 2.24 31.944 6.872 43.936 18.952 58.856 65.528 37.128 115.896-10 23.2-29.616 43.664-53.808 56.128-22.448 11.56-45.184 14.432-60.832 7.68-24.632-10.624-43.016-49.448-40.832-89.664.736-2.512 1.256-5.12 1.256-7.872 0-.816-.176-1.584-.24-2.384 1.328-9.24 3.736-18.432 7.544-27.256 16.408-38.048 45.592-59.4 77.84-59.4zM276 176c5.64 0 10.36 3.928 11.632 9.184-.328 2.56-.504 5.12-.68 7.672-1.872 4.2-6.064 7.144-10.952 7.144h-4v-24h4zm-4-40H80v-24h192v24zM86.4 44.8C99.928 26.768 121.456 16 144 16h11.16c17.288 0 34.024 5.064 48.408 14.656a7.993 7.993 0 008.872 0l14.872-9.912A28.11 28.11 0 01242.976 16c10.104 0 19.504 5.456 24.512 14.224 11.656 20.392 11.536 45.456-.12 65.776H187.68C195.312 87.496 200 76.304 200 64h-16c0 17.648-14.352 32-32 32h-20.32C139.312 87.496 144 76.304 144 64h-16c0 17.648-14.352 32-32 32H72c-4.416 0-8 3.584-8 8v1.248c-13.936 1.2-27.72-5.248-35.64-17.128l-5.584-8.384C47.816 77.776 71.224 65.024 86.4 44.8z"/><path fill="#000" d="M333.192 228.792l14.696 6.336 6.12-14.2 14.728 6.24-6.168 14.296 14.696 6.336 6.208-14.392 14.728 6.24-6.256 14.496 14.696 6.336 6.296-14.592 14.784 6.256 6.232-14.736-14.68-6.216 6.336-14.696 14.784 6.264 6.232-14.736-14.68-6.216 6.376-14.792 14.688 6.336 6.336-14.696-14.688-6.336 6.336-14.688-14.696-6.336-6.336 14.688-14.688-6.336 6.336-14.696-14.696-6.336-6.336 14.688-14.688-6.336 6.336-14.688-14.696-6.336-6.336 14.688-29.384-12.672-6.336 14.696 29.384 12.672-6.592 15.28-28.992-12.272-6.232 14.736 28.888 12.232-6.32 14.696-28.992-12.272-6.232 14.736 28.888 12.232-6.08 14.096zm71.352-3.84l-14.728-6.24 6.336-14.696 14.728 6.24-6.336 14.696zm19.096-44.264l-6.424 14.888-14.728-6.24 6.464-14.984 14.688 6.336zm-44.072-19.016l14.688 6.336-6.504 15.088-14.728-6.24 6.544-15.184zm-12.88 29.88l14.728 6.24-6.336 14.696-14.728-6.24 6.336-14.696zM440 352c-26.472 0-48 21.528-48 48s21.528 48 48 48 48-21.528 48-48-21.528-48-48-48zm0 80c-17.648 0-32-14.352-32-32s14.352-32 32-32 32 14.352 32 32-14.352 32-32 32zm0 32c-14.824 0-28.728-4.912-40.224-14.216l-10.064 12.44C403.88 473.688 421.736 480 440 480v-16zm-80-64h16c0-14.824 4.912-28.728 14.216-40.224l-12.44-10.064C366.312 363.88 360 381.736 360 400z"/></g></svg>